<?xml version="1.0" standalone="no"?>
<!DOCTYPE svg PUBLIC "-//W3C//DTD SVG 1.1//EN" "http://www.w3.org/Graphics/SVG/1.1/DTD/svg11.dtd" >
<svg>
<metadata>
Created by FontForge 20090622 at Fri Apr  8 01:35:19 2016
 By deploy user
&#194;&#169; 1985, 1987, 1989, 1990, 1997, 1998, 1999, 2002 Adobe Systems Incorporated. All rights reserved.
</metadata>
<defs>
<font id="HelveticaLTStd-Bold" horiz-adv-x="556" >
  <font-face 
    font-family="Helvetica LT Std"
    font-weight="700"
    font-stretch="normal"
    units-per-em="1000"
    panose-1="2 11 7 4 2 2 2 3 2 4"
    ascent="718"
    descent="-282"
    x-height="532"
    cap-height="718"
    bbox="-170 -228 1003 962"
    underline-thickness="50"
    underline-position="-50"
    unicode-range="U+0020-U+FB02"
  />
<missing-glyph horiz-adv-x="500" 
d="M0 0v700h500v-700h-500zM250 395l170 255h-340zM280 350l170 -255v510zM80 50h340l-170 255zM50 605v-510l170 255z" />
    <glyph glyph-name=".notdef" horiz-adv-x="500" 
d="M0 0v700h500v-700h-500zM250 395l170 255h-340zM280 350l170 -255v510zM80 50h340l-170 255zM50 605v-510l170 255z" />
    <glyph glyph-name=".null" horiz-adv-x="0" 
 />
    <glyph glyph-name="nonmarkingreturn" horiz-adv-x="333" 
 />
    <glyph glyph-name="space" unicode=" " horiz-adv-x="278" 
 />
    <glyph glyph-name="exclam" unicode="!" horiz-adv-x="333" 
d="M240 141v-141h-146v141h146zM244 535l-40 -336h-74l-40 336v183h154v-183z" />
    <glyph glyph-name="quotedbl" unicode="&#x22;" horiz-adv-x="474" 
d="M278 447v271h98v-271h-98zM98 447v271h98v-271h-98z" />
    <glyph glyph-name="numbersign" unicode="#" 
d="M509 289l-12 -90h-97l-28 -199h-94l28 199h-97l-28 -199h-94l28 199h-97l12 90h97l17 120h-97l12 90h97l28 199h94l-28 -199h97l28 199h94l-28 -199h97l-12 -90h-97l-17 -120h97zM335 409h-97l-17 -120h97z" />
    <glyph glyph-name="dollar" unicode="$" 
d="M512 501h-129q-4 62 -25 82.5t-57 20.5v-187q127 -40 167 -79q55 -52 55 -140q0 -50 -20 -95t-72 -80.5t-130 -39.5v-98h-46v98q-120 10 -172.5 64.5t-52.5 167.5h131q5 -60 23 -88t71 -38v210q-35 9 -60 17.5t-55.5 25t-49.5 36.5t-32 52t-13 72q0 87 54.5 147t155.5 61
v65h46v-65q29 -3 50.5 -7.5t52 -18.5t51 -35t37 -59t20.5 -89zM255 431v173q-41 -2 -62.5 -26t-21.5 -52q0 -76 84 -95zM301 282v-193q33 2 60.5 24.5t27.5 73.5q0 71 -88 95z" />
    <glyph glyph-name="percent" unicode="%" horiz-adv-x="889" 
d="M131 528q0 -33 23.5 -56t55.5 -23t55.5 23t23.5 56t-23.5 56t-55.5 23t-55.5 -23t-23.5 -56zM28 528q0 76 53.5 129t128.5 53q74 0 128 -53.5t54 -128.5t-53.5 -128.5t-128.5 -53.5t-128.5 53t-53.5 129zM678 710l-398 -729h-74l398 729h74zM497 170q0 76 53.5 129
t128.5 53q74 0 128 -53.5t54 -128.5t-53.5 -128.5t-128.5 -53.5t-128.5 53t-53.5 129zM600 170q0 -33 23.5 -56t55.5 -23t55.5 23t23.5 56t-23.5 56t-55.5 23t-55.5 -23t-23.5 -56z" />
    <glyph glyph-name="ampersand" unicode="&#x26;" horiz-adv-x="722" 
d="M388 553q0 29 -16.5 44t-43.5 15q-25 0 -41.5 -15.5t-16.5 -42.5q0 -33 52 -90q66 42 66 89zM571 157l130 -157h-169l-49 61q-80 -80 -205 -80q-99 0 -161.5 60.5t-62.5 143.5q0 60 28 109.5t110 99.5l15 9q-65 74 -65 150q0 73 53.5 119t137.5 46q67 0 121.5 -43
t54.5 -123q0 -101 -119 -171l102 -126q31 48 37 118h124q-7 -70 -25.5 -118.5t-56.5 -97.5zM411 149l-132 165q-50 -37 -67.5 -58.5t-17.5 -61.5q0 -31 25.5 -63t80.5 -32q56 0 111 50z" />
    <glyph glyph-name="quotesingle" unicode="'" horiz-adv-x="238" 
d="M70 447v271h98v-271h-98z" />
    <glyph glyph-name="parenleft" unicode="(" horiz-adv-x="333" 
d="M314 -208h-103q-176 237 -176 469q0 238 176 473h103q-66 -112 -100.5 -221t-34.5 -252q0 -141 35 -248.5t100 -220.5z" />
    <glyph glyph-name="parenright" unicode=")" horiz-adv-x="333" 
d="M19 734h103q176 -237 176 -469q0 -238 -176 -473h-103q66 112 100.5 221t34.5 252q0 141 -35 248.5t-100 220.5z" />
    <glyph glyph-name="asterisk" unicode="*" horiz-adv-x="389" 
d="M338 633l24 -73l-105 -32l69 -97l-63 -44l-68 91l-69 -91l-63 44l68 97l-104 32l23 73l102 -34v119h85v-119z" />
    <glyph glyph-name="plus" unicode="+" horiz-adv-x="584" 
d="M236 309v197h112v-197h196v-112h-196v-197h-112v197h-196v112h196z" />
    <glyph glyph-name="comma" unicode="," horiz-adv-x="278" 
d="M214 146v-126q0 -86 -39 -128.5t-110 -59.5h-1v53q24 8 38.5 17t29 34t16.5 64h-84v146h150z" />
    <glyph glyph-name="hyphen" unicode="-" horiz-adv-x="333" 
d="M306 345v-130h-279v130h279z" />
    <glyph glyph-name="period" unicode="." horiz-adv-x="278" 
d="M214 146v-146h-150v146h150z" />
    <glyph glyph-name="slash" unicode="/" horiz-adv-x="278" 
d="M311 737l-227 -756h-117l227 756h117z" />
    <glyph glyph-name="zero" unicode="0" 
d="M32 346q0 186 60.5 275t185.5 89t185.5 -89t60.5 -275q0 -187 -60.5 -276t-185.5 -89t-185.5 89t-60.5 276zM176 346q0 -140 21.5 -196.5t80.5 -56.5t80.5 56.5t21.5 196.5t-21.5 196t-80.5 56t-80.5 -56t-21.5 -196z" />
    <glyph glyph-name="one" unicode="1" 
d="M69 489v98h20q91 0 131 37t43 86h115v-710h-140v489h-169z" />
    <glyph glyph-name="two" unicode="2" 
d="M170 459h-136q0 66 18.5 114.5t44.5 74t61 40.5t59 18.5t49 3.5q106 0 175 -59.5t69 -164.5q0 -43 -12.5 -79.5t-36.5 -65t-45.5 -46.5t-53.5 -40q-116 -81 -137 -102q-15 -15 -22 -29h308v-124h-485q2 33 4 51.5t12 50.5t26 57t47.5 58t75.5 65l69.5 51t47.5 39t37.5 39
t17 35.5t7.5 44.5q0 40 -25.5 70.5t-72.5 30.5q-28 0 -48 -9.5t-30 -21.5t-15.5 -33t-7 -34.5t-1.5 -34.5z" />
    <glyph glyph-name="three" unicode="3" 
d="M213 311v100h22q17 0 29 1t30.5 6.5t30 15t20.5 28.5t9 45q0 12 -3.5 25.5t-12 29.5t-27.5 26t-46 10q-96 0 -96 -116h-130q0 104 59.5 166t175.5 62q38 0 74.5 -10.5t70.5 -32t54.5 -62t20.5 -93.5q0 -50 -25 -84.5t-60 -50.5v-2q13 -4 28 -12.5t34.5 -26.5t32 -51
t12.5 -75q0 -101 -67.5 -165t-174.5 -64q-27 0 -52 3t-63 17t-65 37.5t-47 70t-20 109.5h137l-1 -1q0 -19 3.5 -36.5t13 -39t32 -35t55.5 -13.5q45 0 75 30.5t30 86.5q0 34 -14.5 56t-42 31t-49 11.5t-53.5 2.5z" />
    <glyph glyph-name="four" unicode="4" 
d="M130 266h177q0 76 0.5 146.5t1.5 112t1 46.5h-2zM526 266v-109h-79v-157h-140v157h-280v121l261 432h159v-444h79z" />
    <glyph glyph-name="five" unicode="5" 
d="M199 580l-25 -154q56 39 127 39q51 0 98 -22t82 -76t35 -131q0 -32 -6.5 -64t-24.5 -67.5t-45.5 -62t-74.5 -44t-107 -17.5q-91 0 -158.5 54t-72.5 155h140q10 -97 99 -97q49 0 77.5 37.5t28.5 95.5q0 53 -26 90t-78 37q-66 0 -94 -51l-125 6l49 390h390v-118h-289z" />
    <glyph glyph-name="six" unicode="6" 
d="M506 530h-139q-7 68 -82 68q-106 0 -117 -196l2 -2q43 59 133 59q103 0 160 -65.5t57 -153.5q0 -116 -64.5 -187.5t-167.5 -71.5q-62 0 -109 20.5t-74.5 53.5t-44.5 81.5t-23 96t-6 105.5q0 41 2.5 75t11 80.5t26.5 82t46 67.5t73.5 49.5t104.5 17.5q31 0 76.5 -11.5
t68.5 -34.5q31 -30 44 -55t22 -79zM380 228q0 61 -31 90t-71 29q-45 0 -76 -30t-31 -92q0 -58 30.5 -95t80.5 -37q42 0 70 33.5t28 101.5z" />
    <glyph glyph-name="seven" unicode="7" 
d="M528 698v-108q-35 -38 -68.5 -83t-78.5 -121.5t-75.5 -177.5t-36.5 -208h-144q5 99 36 198t75 174t78 122.5t64 79.5h-353l3 124h500z" />
    <glyph glyph-name="eight" unicode="8" 
d="M279 422q40 0 63.5 24.5t23.5 63.5q0 40 -23.5 64t-58.5 24q-46 0 -71 -24t-25 -64q0 -34 24.5 -61t66.5 -27zM524 211q0 -29 -7.5 -58.5t-25.5 -61t-45 -55.5t-70.5 -39.5t-97.5 -15.5q-65 0 -115 19.5t-77.5 52.5t-40.5 69t-13 75q0 130 108 180q-86 43 -86 139
q0 89 62.5 141.5t158.5 52.5q106 0 165.5 -53.5t59.5 -131.5q0 -100 -82 -143q54 -27 80 -66t26 -105zM380 205q0 44 -25.5 77.5t-78.5 33.5q-42 0 -71 -28t-29 -82q0 -51 27.5 -82t75.5 -31q50 0 75.5 34.5t25.5 77.5z" />
    <glyph glyph-name="nine" unicode="9" 
d="M170 475q0 -130 105 -130q41 0 72 30t31 89q0 62 -27 96.5t-80 34.5q-38 0 -69.5 -26.5t-31.5 -93.5zM44 164h139v-1q11 -70 82 -70q49 0 82.5 47.5t34.5 150.5l-2 2q-40 -60 -135 -60q-98 0 -156.5 64.5t-58.5 157.5q0 126 66.5 190.5t175.5 64.5q250 0 250 -365
q0 -99 -22 -172t-59.5 -113.5t-81.5 -59.5t-95 -19q-91 0 -151 49.5t-69 133.5z" />
    <glyph glyph-name="colon" unicode=":" horiz-adv-x="333" 
d="M242 146v-146h-150v146h150zM242 512v-146h-150v146h150z" />
    <glyph glyph-name="semicolon" unicode=";" horiz-adv-x="333" 
d="M242 146v-126q0 -86 -39 -128.5t-110 -59.5h-1v53q24 8 38.5 17t29 34t16.5 64h-84v146h150zM242 512v-146h-150v146h150z" />
    <glyph glyph-name="less" unicode="&#x3c;" horiz-adv-x="584" 
d="M546 100v-108l-508 216v90l508 216v-108l-363 -153z" />
    <glyph glyph-name="equal" unicode="=" horiz-adv-x="584" 
d="M544 419v-112h-504v112h504zM544 199v-112h-504v112h504z" />
    <glyph glyph-name="greater" unicode="&#x3e;" horiz-adv-x="584" 
d="M38 100l363 153l-363 153v108l508 -216v-90l-508 -216v108z" />
    <glyph glyph-name="question" unicode="?" horiz-adv-x="611" 
d="M374 208h-132q0 77 18 117t84 86q62 43 62 99q0 53 -29 76t-68 23q-32 0 -54 -10.5t-32.5 -30t-15 -36t-6.5 -38.5v-1h-141q0 50 14.5 91t38.5 67t55.5 43.5t64.5 25t67 7.5q24 0 50 -3t65.5 -16t68.5 -34t50.5 -63t21.5 -97q0 -57 -29 -98t-92 -86q-35 -25 -48 -48
t-13 -74zM384 141v-141h-146v141h146z" />
    <glyph glyph-name="at" unicode="@" horiz-adv-x="975" 
d="M581 376q0 37 -22.5 61t-57.5 24q-49 0 -83 -42.5t-34 -92.5q0 -40 21 -64.5t57 -24.5q51 0 85 43t34 96zM611 493l13 53h88l-58 -255q-7 -28 -7 -42q0 -21 15 -21q43 0 78 49.5t35 126.5q0 119 -76.5 186t-196.5 67q-127 0 -206 -85.5t-79 -214.5q0 -132 84 -214
t215 -82q122 0 210 81h89q-52 -77 -131.5 -119t-173.5 -42q-164 0 -278 108t-114 270q0 159 113 268.5t273 109.5q91 0 171 -37.5t130.5 -109.5t50.5 -162q0 -61 -20 -112.5t-50 -83.5t-65.5 -54.5t-66 -31.5t-53.5 -9t-39.5 13.5t-17.5 39.5l-2 1q-48 -54 -105 -54
q-65 0 -113 51.5t-48 122.5q0 98 60.5 172.5t153.5 74.5q81 0 121 -65z" />
    <glyph glyph-name="A" unicode="A" horiz-adv-x="722" 
d="M228 148l-50 -148h-158l256 718h173l253 -718h-163l-46 148h-265zM360 556l-92 -284h183l-89 284h-2z" />
    <glyph glyph-name="B" unicode="B" horiz-adv-x="722" 
d="M76 0v718h349q62 0 108 -18t69 -47t33.5 -58.5t10.5 -60.5q0 -36 -8.5 -63.5t-25 -44t-27 -24t-27.5 -15.5q111 -42 111 -174q0 -88 -62 -148q-35 -35 -80 -50t-147 -15h-304zM220 316v-192h184q115 0 115 105q0 44 -31.5 65.5t-76.5 21.5h-191zM220 594v-157h176
q47 0 76.5 19.5t29.5 60.5q0 42 -28 59.5t-82 17.5h-172z" />
    <glyph glyph-name="C" unicode="C" horiz-adv-x="722" 
d="M684 483h-150q-5 19 -9 30.5t-16.5 31.5t-27.5 31.5t-43 21t-63 9.5q-30 0 -58.5 -11.5t-57 -37.5t-45.5 -78t-17 -124q0 -68 17.5 -121.5t58.5 -88.5t102 -35q63 0 104.5 34.5t54.5 100.5h150q-23 -122 -102.5 -193.5t-209.5 -71.5q-148 0 -238 98t-90 279
q0 182 92.5 280.5t237.5 98.5q77 0 137.5 -24.5t96 -63.5t54.5 -81t22 -85z" />
    <glyph glyph-name="D" unicode="D" horiz-adv-x="722" 
d="M76 0v718h317q69 0 123 -23t85 -58t50.5 -82.5t26.5 -90.5t7 -88q0 -50 -8 -98.5t-29 -100t-53.5 -90t-86 -63t-121.5 -24.5h-311zM223 594v-470h146q58 0 96 37t52.5 88.5t14.5 115.5q0 61 -11.5 105t-27.5 67.5t-40.5 37t-43 16.5t-42.5 3h-144z" />
    <glyph glyph-name="E" unicode="E" horiz-adv-x="667" 
d="M604 718v-127h-381v-151h350v-127h-350v-186h398v-127h-545v718h528z" />
    <glyph glyph-name="F" unicode="F" horiz-adv-x="611" 
d="M226 302v-302h-150v718h511v-127h-361v-162h316v-127h-316z" />
    <glyph glyph-name="G" unicode="G" horiz-adv-x="778" 
d="M413 266v121h300v-387h-100l-15 90q-21 -24 -34.5 -37t-41 -33t-65 -29.5t-83.5 -9.5q-66 0 -124.5 24t-105 69t-73.5 118.5t-27 164.5q0 75 21 142t62.5 121t110 85.5t155.5 31.5h2q78 0 140 -23.5t97.5 -61t55 -77.5t22.5 -80h-150q0 31 -43.5 74.5t-113.5 43.5
q-88 0 -147 -64t-59 -194q0 -70 18 -120.5t49 -77t66 -38t76 -11.5q13 0 28 2.5t38.5 12t43 25t37.5 46.5t27 72h-167z" />
    <glyph glyph-name="H" unicode="H" horiz-adv-x="722" 
d="M501 322h-280v-322h-150v718h150v-272h280v272h150v-718h-150v322z" />
    <glyph glyph-name="I" unicode="I" horiz-adv-x="278" 
d="M214 718v-718h-150v718h150z" />
    <glyph glyph-name="J" unicode="J" 
d="M484 718v-510q0 -226 -223 -226q-50 0 -88.5 9.5t-63.5 23t-42.5 39t-26 45.5t-13 56t-5 56.5t-0.5 59.5h140q0 -94 16 -131t72 -37q53 0 68.5 27t15.5 78v510h150z" />
    <glyph glyph-name="K" unicode="K" horiz-adv-x="722" 
d="M237 243v-243h-150v718h150v-292l274 292h194l-293 -294l310 -424h-193l-222 315z" />
    <glyph glyph-name="L" unicode="L" horiz-adv-x="611" 
d="M226 718v-588h357v-130h-507v718h150z" />
    <glyph glyph-name="M" unicode="M" horiz-adv-x="833" 
d="M765 718v-718h-140v600h-2l-134 -600h-147l-131 600h-2v-600h-140v718h219l130 -566h2l128 566h217z" />
    <glyph glyph-name="N" unicode="N" horiz-adv-x="722" 
d="M514 218v500h140v-718h-150l-293 512h-2v-512h-140v718h158l285 -500h2z" />
    <glyph glyph-name="O" unicode="O" horiz-adv-x="778" 
d="M44 359q0 69 14.5 126.5t37 96t54.5 67.5t63 45.5t66 26.5t60.5 13t49.5 3t49.5 -3t60.5 -13t66 -26.5t63 -45.5t54.5 -67.5t37 -96t14.5 -126.5t-14.5 -126.5t-37 -96t-54.5 -67.5t-63 -45.5t-66 -26.5t-60.5 -13t-49.5 -3t-49.5 3t-60.5 13t-66 26.5t-63 45.5
t-54.5 67.5t-37 96t-14.5 126.5zM194 359q0 -71 18.5 -123t49 -78.5t62 -38t65.5 -11.5t65.5 11.5t62 38t49 78.5t18.5 123t-18.5 123t-49 78.5t-62 38t-65.5 11.5t-65.5 -11.5t-62 -38t-49 -78.5t-18.5 -123z" />
    <glyph glyph-name="P" unicode="P" horiz-adv-x="667" 
d="M226 259v-259h-150v718h328q104 0 163.5 -62t59.5 -168q0 -23 -5 -49t-20.5 -59.5t-39.5 -59t-66.5 -43.5t-97.5 -18h-172zM226 383h139q39 0 64 12t34.5 33.5t11.5 34.5t2 32q0 52 -31 75.5t-101 23.5h-119v-211z" />
    <glyph glyph-name="Q" unicode="Q" horiz-adv-x="778" 
d="M398 195l77 81l76 -71q33 61 33 154q0 71 -18.5 123t-49 78.5t-62 38t-65.5 11.5t-65.5 -11.5t-62 -38t-49 -78.5t-18.5 -123t18.5 -123t49 -78.5t62 -38t65.5 -11.5q44 0 81 19zM737 29l-79 -81l-85 81q-82 -48 -184 -48q-24 0 -49.5 3t-60.5 13t-66 26.5t-63 45.5
t-54.5 67.5t-37 96t-14.5 126.5t14.5 126.5t37 96t54.5 67.5t63 45.5t66 26.5t60.5 13t49.5 3t49.5 -3t60.5 -13t66 -26.5t63 -45.5t54.5 -67.5t37 -96t14.5 -126.5q0 -161 -75 -256z" />
    <glyph glyph-name="R" unicode="R" horiz-adv-x="722" 
d="M76 0v718h363q54 0 96.5 -15.5t66 -38t38.5 -51.5t20 -52.5t5 -45.5q0 -60 -29.5 -106.5t-81.5 -64.5q51 -22 71 -55.5t20 -126.5q0 -85 4.5 -109.5t27.5 -33.5v-19h-166q-16 54 -16 145q0 42 -2.5 63.5t-14 40.5t-35.5 25.5t-65 6.5h-155v-281h-147zM223 402h176
q60 0 88 23t28 75q0 37 -23 65.5t-82 28.5h-187v-192z" />
    <glyph glyph-name="S" unicode="S" horiz-adv-x="667" 
d="M39 221h144q0 -18 6 -35.5t20.5 -37t47 -31.5t78.5 -12q150 0 150 93q0 38 -30.5 55.5t-99.5 33.5l-77 18q-46 11 -69.5 17.5t-59.5 23t-53.5 36t-31.5 54t-14 80.5q0 27 6 54t24.5 58t47.5 54.5t80 39t118 15.5q78 0 135.5 -23t87 -60.5t43.5 -74.5t14 -74h-144
q-2 18 -7 31.5t-18.5 33.5t-44.5 31.5t-77 11.5q-50 0 -87.5 -20.5t-37.5 -65.5q0 -20 7 -34t20.5 -22t23.5 -11.5t25 -7.5l175 -43q42 -10 71.5 -22.5t58 -34t43.5 -56t15 -80.5q0 -51 -16 -92t-43.5 -65t-57.5 -41t-65 -24.5t-58 -10t-43 -2.5q-75 0 -132 17t-89.5 41.5
t-52.5 58.5t-26.5 63.5t-6.5 59.5z" />
    <glyph glyph-name="T" unicode="T" horiz-adv-x="611" 
d="M381 591v-591h-150v591h-217v127h584v-127h-217z" />
    <glyph glyph-name="U" unicode="U" horiz-adv-x="722" 
d="M651 718v-467q0 -138 -77 -204t-218 -66q-150 0 -228 87q-53 60 -56 174v476h153v-466q0 -71 36 -107.5t92 -36.5q145 0 145 137v473h153z" />
    <glyph glyph-name="V" unicode="V" horiz-adv-x="667" 
d="M336 174l156 544h156l-244 -718h-143l-242 718h161l154 -544h2z" />
    <glyph glyph-name="W" unicode="W" horiz-adv-x="944" 
d="M219 0l-203 718h160q95 -407 114 -525h2q36 207 100 525h159q86 -405 107 -525h2q20 112 117 525h152l-202 -718h-144q-79 375 -111 560h-2q-18 -114 -111 -560h-140z" />
    <glyph glyph-name="X" unicode="X" horiz-adv-x="667" 
d="M419 373l234 -373h-183l-136 245l-145 -245h-175l232 367l-219 351h179l128 -232l131 232h173z" />
    <glyph glyph-name="Y" unicode="Y" horiz-adv-x="667" 
d="M413 269v-269h-150v271l-248 447h177l149 -312l142 312h170z" />
    <glyph glyph-name="Z" unicode="Z" horiz-adv-x="611" 
d="M586 127v-127h-561v127l371 464h-361v127h549v-118l-376 -473h378z" />
    <glyph glyph-name="bracketleft" unicode="[" horiz-adv-x="333" 
d="M185 626v-726h124v-96h-246v918h246v-96h-124z" />
    <glyph glyph-name="backslash" unicode="\" horiz-adv-x="278" 
d="M194 -19l-227 756h117l227 -756h-117z" />
    <glyph glyph-name="bracketright" unicode="]" horiz-adv-x="333" 
d="M148 -100v726h-124v96h246v-918h-246v96h124z" />
    <glyph glyph-name="asciicircum" unicode="^" horiz-adv-x="584" 
d="M171 323h-109l180 375h100l180 -375h-110l-120 263z" />
    <glyph glyph-name="underscore" unicode="_" 
d="M0 -75h556v-50h-556v50z" />
    <glyph glyph-name="grave" unicode="`" horiz-adv-x="333" 
d="M124 604l-147 146h154l94 -146h-101z" />
    <glyph glyph-name="a" unicode="a" 
d="M496 392v-288q0 -72 31 -83v-21h-151q-10 30 -13 63q-22 -22 -38.5 -35.5t-53 -27.5t-80.5 -14q-67 0 -114.5 39t-47.5 116q0 75 42 117.5t113 52.5l126 19q49 7 49 42q0 27 -17 42t-34 17.5t-41 2.5q-25 0 -42 -7t-26 -19t-12.5 -23t-5.5 -25h-135q6 58 27.5 97
t57.5 57.5t71 25t82 6.5q33 0 65.5 -6t68 -21.5t57 -48t21.5 -78.5zM359 191v68q-23 -18 -95 -29q-47 -8 -71 -24t-24 -56q0 -33 20 -48.5t45 -15.5q49 0 87 29t38 76z" />
    <glyph glyph-name="b" unicode="b" horiz-adv-x="611" 
d="M434 262q0 71 -28.5 117t-90.5 46q-120 0 -120 -171q0 -65 30.5 -109t93.5 -44q42 0 69.5 28.5t36.5 62.5t9 70zM201 718v-255h2q54 83 154 83q94 0 157.5 -71.5t63.5 -202.5q0 -120 -56.5 -203t-167.5 -83q-108 0 -154 81h-2v-67h-137v718h140z" />
    <glyph glyph-name="c" unicode="c" 
d="M381 194h142q-2 -27 -13.5 -57t-36 -66.5t-75 -60.5t-118.5 -24q-71 0 -122 25t-76.5 66.5t-36.5 84t-11 89.5q0 136 63 215.5t192 79.5q36 0 71 -9t72 -30t62 -63.5t30 -101.5h-142q-6 34 -26 60t-60 26h-7q-41 0 -67.5 -26t-35 -58t-8.5 -70q0 -31 2.5 -53t11.5 -53.5
t33 -49t61 -17.5q47 0 71 32.5t24 60.5z" />
    <glyph glyph-name="d" unicode="d" horiz-adv-x="611" 
d="M551 718v-718h-137v67h-2q-46 -81 -154 -81q-111 0 -167.5 83t-56.5 203q0 131 63.5 202.5t157.5 71.5q100 0 154 -83h2v255h140zM178 262q0 -36 9 -70t36.5 -62.5t69.5 -28.5q63 0 93.5 44t30.5 109q0 171 -120 171q-62 0 -90.5 -46t-28.5 -117z" />
    <glyph glyph-name="e" unicode="e" 
d="M378 156h144q-26 -89 -91 -129.5t-143 -40.5q-265 0 -265 291q0 26 4 53.5t19.5 68.5t41 71.5t75 53t115.5 22.5q35 0 67 -7t66.5 -26.5t59.5 -51t41 -85t16 -123.5v-25h-365q2 -19 3.5 -30t9.5 -32.5t20 -34t36 -23t56 -10.5q31 0 56.5 15.5t33.5 42.5zM167 319h217
q-5 59 -36.5 85.5t-71.5 26.5q-96 0 -109 -112z" />
    <glyph glyph-name="f" unicode="f" horiz-adv-x="333" 
d="M227 432v-432h-140v432h-77v100h77v43q0 152 156 152q48 0 72 -2v-113h-39q-34 0 -41.5 -11.5t-7.5 -47.5v-21h91v-100h-91z" />
    <glyph glyph-name="g" unicode="g" horiz-adv-x="611" 
d="M419 532h134v-504q0 -30 -2 -50.5t-9.5 -53t-25 -54.5t-46 -43.5t-76 -32.5t-110.5 -11q-92 0 -160 40.5t-72 119.5h152q4 -17 10 -27t28 -18.5t60 -8.5q57 0 84 29t27 93v64l-2 2q-21 -37 -53 -58.5t-89 -21.5q-101 0 -165 70.5t-64 204.5q0 131 63.5 202.5t157.5 71.5
q111 0 156 -93h2v79zM184 263q0 -60 27 -104t84 -44q65 0 92 44.5t27 109.5q0 67 -32 111.5t-88 44.5q-46 0 -78 -38.5t-32 -123.5z" />
    <glyph glyph-name="h" unicode="h" horiz-adv-x="611" 
d="M546 368v-368h-140v323q0 16 -1 26.5t-5.5 27t-13.5 26.5t-27.5 17.5t-43.5 7.5q-48 0 -79 -32t-31 -91v-305h-140v718h140v-255h2q14 35 56.5 59t97.5 24q81 0 133 -46.5t52 -131.5z" />
    <glyph glyph-name="i" unicode="i" horiz-adv-x="278" 
d="M69 532h140v-532h-140v532zM209 725v-130h-140v130h140z" />
    <glyph glyph-name="j" unicode="j" horiz-adv-x="278" 
d="M209 532v-588q0 -97 -40.5 -127.5t-130.5 -30.5h-35v112h25q8 0 13 1t12.5 5t11.5 15t4 28v585h140zM209 725v-130h-140v130h140z" />
    <glyph glyph-name="k" unicode="k" 
d="M209 168v-168h-140v718h140v-388l176 202h172l-188 -206l193 -326h-168l-127 228z" />
    <glyph glyph-name="l" unicode="l" horiz-adv-x="278" 
d="M209 718v-718h-140v718h140z" />
    <glyph glyph-name="m" unicode="m" horiz-adv-x="889" 
d="M826 368v-368h-140v323q0 105 -76 105q-95 0 -95 -109v-319h-140v320q0 19 -0.5 29.5t-5 27.5t-12.5 26.5t-25 17t-41 7.5q-87 0 -87 -104v-324h-140v532h134v-78h2q47 92 151 92q55 0 87 -20t61 -65q15 22 26.5 35.5t44 31.5t71.5 18q81 0 133 -46.5t52 -131.5z" />
    <glyph glyph-name="n" unicode="n" horiz-adv-x="611" 
d="M546 368v-368h-140v323q0 16 -1 26.5t-5.5 27t-13.5 26.5t-27.5 17.5t-43.5 7.5q-48 0 -79 -32t-31 -91v-305h-140v532h134v-78h2q55 92 160 92q81 0 133 -46.5t52 -131.5z" />
    <glyph glyph-name="o" unicode="o" horiz-adv-x="611" 
d="M578 266q0 -136 -78 -208t-194 -72t-194 72t-78 208t78 208t194 72t194 -72t78 -208zM434 266q0 29 -5 54.5t-18 51.5t-40 41t-65 15t-65 -15t-40 -41t-18 -51.5t-5 -54.5t5 -54.5t18 -51.5t40 -41t65 -15t65 15t40 41t18 51.5t5 54.5z" />
    <glyph glyph-name="p" unicode="p" horiz-adv-x="611" 
d="M196 254q0 -65 30.5 -109t92.5 -44q42 0 69.5 28.5t36.5 62.5t9 70q0 71 -28.5 117t-90.5 46q-119 0 -119 -171zM196 532v-77h2q25 41 60.5 66t98.5 25q94 0 157.5 -71.5t63.5 -202.5q0 -120 -56.5 -203t-167.5 -83q-102 0 -150 82h-2v-275h-140v739h134z" />
    <glyph glyph-name="q" unicode="q" horiz-adv-x="611" 
d="M418 532h134v-739h-140v273h-2q-43 -80 -151 -80q-48 0 -87.5 17.5t-64.5 45t-42 63.5t-24 71.5t-7 71.5q0 78 23 141.5t77 106.5t133 43q96 0 149 -93h2v79zM178 256q0 -152 120 -152q52 0 84.5 40.5t32.5 118.5q0 51 -14 86.5t-36 50t-38.5 20t-31.5 5.5
q-49 0 -83 -38.5t-34 -130.5z" />
    <glyph glyph-name="r" unicode="r" horiz-adv-x="389" 
d="M64 0v532h134v-92h2q18 34 32 53t44 36t70 17q9 0 27 -2v-142q-12 2 -40 2q-129 0 -129 -127v-277h-140z" />
    <glyph glyph-name="s" unicode="s" 
d="M503 370h-137q-4 21 -10 34t-27 24.5t-57 11.5q-86 0 -86 -52q0 -23 34.5 -36t83 -22t97.5 -23t83.5 -49t34.5 -89q0 -55 -24 -93.5t-62.5 -56.5t-74 -25.5t-72.5 -7.5q-49 0 -91 9t-80 29t-61 57.5t-24 88.5h144q0 -78 116 -78q48 0 68.5 17.5t20.5 37.5q0 24 -34 37.5
t-82.5 22t-97 22.5t-82.5 49t-34 90q0 32 11 61.5t34 56.5t67 43.5t103 16.5q226 0 239 -176z" />
    <glyph glyph-name="t" unicode="t" horiz-adv-x="333" 
d="M222 676v-144h87v-100h-87v-289q0 -26 9 -34.5t49 -8.5q9 0 29 2v-106q-44 -2 -66 -2h-18q-84 0 -113.5 28.5t-29.5 86.5v323h-72v100h72v144h140z" />
    <glyph glyph-name="u" unicode="u" horiz-adv-x="611" 
d="M545 532v-532h-134v75h-2q-50 -89 -162 -89q-83 0 -132 49t-49 147v350h140v-330q0 -98 91 -98q42 0 75 28.5t33 92.5v307h140z" />
    <glyph glyph-name="v" unicode="v" 
d="M543 532l-192 -532h-147l-191 532h156l110 -392h2l113 392h149z" />
    <glyph glyph-name="w" unicode="w" horiz-adv-x="778" 
d="M769 532l-153 -532h-144l-83 388h-2l-83 -388h-144l-150 532h149l83 -382h2l75 382h141l80 -382h2l83 382h144z" />
    <glyph glyph-name="x" unicode="x" 
d="M360 271l181 -271h-173l-92 160l-92 -160h-169l181 271l-174 261h170l90 -155l88 155h165z" />
    <glyph glyph-name="y" unicode="y" 
d="M539 532l-183 -523q-27 -82 -42.5 -119.5t-39.5 -64.5t-49.5 -33t-74.5 -6q-23 0 -63 2v112q12 -2 27 -2q43 0 63 14.5t29 65.5l-196 554h156l114 -392h2l109 392h148z" />
    <glyph glyph-name="z" unicode="z" horiz-adv-x="500" 
d="M470 417l-269 -302h279v-115h-460v109l273 311h-254v112h431v-115z" />
    <glyph glyph-name="braceleft" unicode="{" horiz-adv-x="389" 
d="M365 -108v-88h-83q-54 0 -97 36t-43 101v200q0 41 -31.5 58.5t-62.5 17.5v92q31 0 62.5 17.5t31.5 58.5v200q0 65 43 101t97 36h83v-88h-45q-56 0 -56 -66v-196q-7 -56 -42.5 -80.5t-71.5 -27.5v-2q36 -3 71.5 -27.5t42.5 -80.5v-196q0 -66 56 -66h45z" />
    <glyph glyph-name="bar" unicode="|" horiz-adv-x="280" 
d="M84 775h112v-1000h-112v1000z" />
    <glyph glyph-name="braceright" unicode="}" horiz-adv-x="389" 
d="M341 309v-92q-31 0 -62.5 -17.5t-31.5 -58.5v-200q0 -65 -43 -101t-97 -36h-83v88h45q56 0 56 66v196q7 56 42.5 80.5t71.5 27.5v2q-36 3 -71.5 27.5t-42.5 80.5v196q0 66 -56 66h-45v88h83q54 0 97 -36t43 -101v-200q0 -41 31.5 -58.5t62.5 -17.5z" />
    <glyph glyph-name="asciitilde" unicode="~" horiz-adv-x="584" 
d="M487 343l36 -90q-20 -27 -33 -42t-38 -29.5t-54 -14.5q-42 0 -102 33q-64 36 -115 36t-84 -73l-36 90q45 86 125 86q39 0 111 -32q8 -3 27 -12t28.5 -13t23.5 -8t23 -4q19 0 36.5 12.5t26.5 24.5t25 36z" />
    <glyph glyph-name="uni00A0" unicode="&#xa0;" horiz-adv-x="278" 
 />
    <glyph glyph-name="exclamdown" unicode="&#xa1;" horiz-adv-x="333" 
d="M94 391v141h146v-141h-146zM90 -3l40 336h74l40 -336v-183h-154v183z" />
    <glyph glyph-name="cent" unicode="&#xa2;" 
d="M216 129l85 299h-12q-41 0 -67.5 -26t-35 -58t-8.5 -70q0 -107 38 -145zM524 342h-142q-9 46 -34 68l-87 -305q9 -4 25 -4q47 0 71 32.5t24 60.5h142q-2 -27 -13.5 -57t-36 -66.5t-75 -60.5t-118.5 -24q-30 0 -51 4l-31 -108h-52l34 120q-54 20 -88.5 64t-46 89t-11.5 96
q0 136 63 215.5t192 79.5q21 0 45 -3l24 85h52l-28 -98q130 -44 142 -188z" />
    <glyph glyph-name="sterling" unicode="&#xa3;" 
d="M376 381v-60h-119q5 -30 5 -53q0 -61 -43 -111q-14 -18 -59 -54l2 -2q66 26 113 26q35 0 71 -11q42 -14 53 -14q47 0 101 36l41 -109q-74 -45 -152 -45q-47 0 -97 18q-63 22 -97 22q-31 0 -109 -35l-54 97q24 9 67.5 54.5t43.5 91.5q0 45 -23 89h-92v60h58
q-25 55 -33 80.5t-8 61.5q0 30 13 61.5t39 62.5t75 51t112 20q43 0 81.5 -10.5t75.5 -35t60 -72t24 -113.5h-131q-9 61 -30.5 90t-80.5 29q-51 0 -74.5 -30t-23.5 -62q0 -27 48 -133h143z" />
    <glyph glyph-name="currency" unicode="&#xa4;" 
d="M278 244q46 0 75 32.5t29 80.5t-29 79.5t-75 31.5t-74 -31.5t-28 -79.5t28 -80.5t74 -32.5zM-3 142l98 98q-31 51 -31 117t31 115l-98 98l66 66l98 -98q54 33 117 33q67 0 117 -33l98 98l66 -66l-98 -98q33 -50 33 -115q0 -67 -33 -117l98 -98l-66 -66l-98 98
q-50 -33 -117 -33q-63 0 -117 33l-98 -98z" />
    <glyph glyph-name="yen" unicode="&#xa5;" 
d="M549 405v-60h-165l-38 -75h203v-60h-204v-210h-127v210h-203v60h203l-40 75h-163v60h131l-155 293h150l144 -294l138 294h142l-150 -293h134z" />
    <glyph glyph-name="brokenbar" unicode="&#xa6;" horiz-adv-x="280" 
d="M84 350v350h112v-350h-112zM84 -150v350h112v-350h-112z" />
    <glyph glyph-name="section" unicode="&#xa7;" 
d="M240 512l162 -81q58 -29 89 -65t31 -98q0 -27 -24 -70t-71 -64q62 -51 62 -128q0 -90 -63.5 -140t-152.5 -50q-50 0 -89.5 15t-61.5 36.5t-36 49t-18.5 48t-4.5 38.5h132q9 -81 88 -81q40 0 56 23.5t16 47.5t-14 38t-45 30l-153 78q-57 29 -83 64t-26 97q0 80 93 132
q-52 47 -52 116q0 73 54.5 126t147.5 53q82 0 140 -42.5t62 -140.5h-127q-5 77 -78 77q-33 0 -52.5 -17.5t-19.5 -38.5q0 -34 38 -53zM341 309l-146 74q-21 -7 -32 -26t-11 -32q0 -38 46 -62l157 -84q43 24 43 66q0 35 -57 64z" />
    <glyph glyph-name="dieresis" unicode="&#xa8;" horiz-adv-x="333" 
d="M132 729v-115h-126v115h126zM327 729v-115h-126v115h126z" />
    <glyph glyph-name="copyright" unicode="&#xa9;" horiz-adv-x="737" 
d="M749 360q0 -115 -53.5 -203t-139 -132t-187.5 -44t-187.5 44t-139 132t-53.5 203q0 172 111.5 274.5t268.5 102.5t268.5 -102.5t111.5 -274.5zM640 360q0 128 -79 209t-192 81q-115 0 -193 -81t-78 -209t77.5 -209.5t191.5 -81.5h2v-1q113 0 192 82t79 210zM473 303h90
q-12 -74 -62 -115.5t-117 -41.5q-93 0 -150.5 62t-57.5 155q0 95 56 155.5t150 60.5q70 0 117.5 -39.5t59.5 -113.5h-86q-6 33 -31.5 49.5t-59.5 16.5q-48 0 -75.5 -34.5t-27.5 -92.5q0 -56 29.5 -94t75.5 -38q38 0 62 18t27 52z" />
    <glyph glyph-name="ordfeminine" unicode="&#xaa;" horiz-adv-x="370" 
d="M326 644v-173q0 -43 21 -49v-13h-98q-6 17 -8 38q-48 -46 -112 -46q-44 0 -75.5 23.5t-31.5 69.5q0 45 28 71.5t74 32.5l82 11q32 5 32 23q0 34 -60 34q-49 0 -56 -41h-87q7 66 48 89t106 23q22 0 43 -3.5t43.5 -13t36.5 -29t14 -47.5zM238 525v40q-17 -11 -62 -17
q-29 -4 -44.5 -14.5t-15.5 -34.5q0 -19 12.5 -28t28.5 -9q32 0 56.5 17.5t24.5 45.5z" />
    <glyph glyph-name="guillemotleft" unicode="&#xab;" 
d="M255 368l-100 -88l100 -88v-116l-167 144v120l167 144v-116zM468 368l-100 -88l100 -88v-116l-167 144v120l167 144v-116z" />
    <glyph glyph-name="logicalnot" unicode="&#xac;" horiz-adv-x="584" 
d="M432 108v199h-392v112h504v-311h-112z" />
    <glyph glyph-name="uni00AD" unicode="&#xad;" horiz-adv-x="333" 
d="M306 345v-130h-279v130h279z" />
    <glyph glyph-name="registered" unicode="&#xae;" horiz-adv-x="737" 
d="M306 327v-171h-87v407h152q83 0 125 -28t42 -95q0 -99 -98 -106l104 -178h-103l-94 171h-41zM306 396h77q32 0 47 10.5t15 42.5q0 45 -78 45h-61v-98zM748 359q0 -87 -31 -159.5t-83.5 -119.5t-121 -73t-143.5 -26q-102 0 -187.5 43.5t-139 131.5t-53.5 203t53.5 203
t139 131.5t187.5 43.5q75 0 143.5 -26t121 -73t83.5 -119.5t31 -159.5zM639 359q0 128 -79 209t-191 81q-115 0 -193 -81t-78 -209t77.5 -209t191.5 -81h2v-1q112 0 191 81.5t79 209.5z" />
    <glyph glyph-name="macron" unicode="&#xaf;" horiz-adv-x="333" 
d="M339 678v-74h-345v74h345z" />
    <glyph glyph-name="degree" unicode="&#xb0;" horiz-adv-x="400" 
d="M57 569q0 59 42 101t101 42t101 -42t42 -101t-42 -101t-101 -42t-101 42t-42 101zM113 569q0 -36 25.5 -61.5t61.5 -25.5t61.5 25.5t25.5 61.5t-25.5 61.5t-61.5 25.5t-61.5 -25.5t-25.5 -61.5z" />
    <glyph glyph-name="plusminus" unicode="&#xb1;" horiz-adv-x="584" 
d="M236 381v125h112v-125h196v-112h-196v-126h-112v126h-196v112h196zM40 0v112h504v-112h-504z" />
    <glyph glyph-name="twosuperior" unicode="&#xb2;" horiz-adv-x="333" 
d="M102 558h-88q0 49 17 82t44 46.5t48 18.5t42 5q68 0 113 -36t45 -99q0 -86 -88 -139q-77 -47 -97 -71h186v-82h-315q1 23 4.5 39.5t13.5 39.5t31.5 45.5t53.5 44.5q50 34 69 48.5t33 34.5t14 43v3l1 2q0 17 -16 32.5t-44 15.5q-22 0 -37 -7.5t-20.5 -21t-7 -22
t-2.5 -22.5z" />
    <glyph glyph-name="threesuperior" unicode="&#xb3;" horiz-adv-x="333" 
d="M101 573h-85q0 62 39 99.5t114 37.5q56 0 99.5 -29t43.5 -90q0 -31 -16.5 -52t-38.5 -30v-2q12 -3 25.5 -11t28.5 -31.5t15 -56.5q0 -60 -43.5 -98.5t-113.5 -38.5q-23 0 -44.5 4t-51 16.5t-47.5 44t-18 77.5h89q0 -67 67 -67q64 0 64 62q0 20 -8.5 33t-25.5 18
t-30.5 6.5t-34.5 1.5v64h15q15 0 23.5 1t22 5.5t20.5 16t7 30.5q0 51 -54 51q-62 0 -62 -62z" />
    <glyph glyph-name="acute" unicode="&#xb4;" horiz-adv-x="333" 
d="M356 750l-147 -146h-101l94 146h154z" />
    <glyph glyph-name="mu" unicode="&#xb5;" horiz-adv-x="611" 
d="M546 0h-134v75h-2q-39 -89 -113 -89q-64 0 -92 57v-250h-140v739h140v-310q0 -118 92 -118q43 0 76 32.5t33 108.5v287h140v-532z" />
    <glyph glyph-name="paragraph" unicode="&#xb6;" 
d="M214 -191v538q-106 0 -164 46t-58 127q0 100 64.5 140t179.5 40h303v-891h-112v806h-101v-806h-112z" />
    <glyph glyph-name="periodcentered" unicode="&#xb7;" horiz-adv-x="278" 
d="M58 253q0 34 23.5 57.5t57.5 23.5t57.5 -23.5t23.5 -57.5t-23 -57.5t-58 -23.5t-58 23.5t-23 57.5z" />
    <glyph glyph-name="cedilla" unicode="&#xb8;" horiz-adv-x="333" 
d="M52 -84l57 84h57l-38 -55q16 4 30 4q30 0 58.5 -18t28.5 -60q0 -44 -34.5 -71.5t-89.5 -27.5q-46 0 -115 25l22 48q52 -16 77 -16q17 0 32 10.5t15 28.5q0 16 -11.5 26t-27.5 10q-14 0 -40 -8z" />
    <glyph glyph-name="onesuperior" unicode="&#xb9;" horiz-adv-x="333" 
d="M26 574v62h13q59 0 85 22t28 52h85v-427h-101v291h-110z" />
    <glyph glyph-name="ordmasculine" unicode="&#xba;" horiz-adv-x="365" 
d="M360 569q0 -66 -44.5 -117t-132.5 -51t-132.5 51t-44.5 117t44.5 117t132.5 51t132.5 -51t44.5 -117zM262 569q0 41 -21 68.5t-58 27.5t-58 -27.5t-21 -68.5t21 -68.5t58 -27.5t58 27.5t21 68.5z" />
    <glyph glyph-name="guillemotright" unicode="&#xbb;" 
d="M401 280l-100 88v116l167 -144v-120l-167 -144v116zM188 280l-100 88v116l167 -144v-120l-167 -144v116z" />
    <glyph glyph-name="onequarter" unicode="&#xbc;" horiz-adv-x="834" 
d="M510 157h115q0 45 0.5 87.5t1 67.5t0.5 28h-2zM716 424v-265h50v-69h-50v-90h-95v90h-183v74l170 260h108zM136 -19l428 729h78l-427 -729h-79zM26 574v62h13q59 0 85 22t28 52h85v-427h-101v291h-110z" />
    <glyph glyph-name="onehalf" unicode="&#xbd;" horiz-adv-x="834" 
d="M136 -19l428 729h78l-427 -729h-79zM26 574v62h13q59 0 85 22t28 52h85v-427h-101v291h-110zM572 275h-88q0 49 17 82t44 46.5t48 18.5t42 5q68 0 113 -36t45 -99q0 -86 -88 -139q-77 -47 -97 -71h186v-82h-315q1 23 4.5 39.5t13.5 39.5t31.5 45.5t53.5 44.5
q50 34 69 48.5t33 34.5t14 43v3l1 2q0 17 -16 32.5t-44 15.5q-22 0 -37 -7.5t-20.5 -21t-7 -22t-2.5 -22.5z" />
    <glyph glyph-name="threequarters" unicode="&#xbe;" horiz-adv-x="834" 
d="M608 710h78l-427 -729h-79zM109 573h-85q0 62 39 99.5t114 37.5q56 0 99.5 -29t43.5 -90q0 -31 -16.5 -52t-38.5 -30v-2q12 -3 25.5 -11t28.5 -31.5t15 -56.5q0 -60 -43.5 -98.5t-113.5 -38.5q-23 0 -44.5 4t-51 16.5t-47.5 44t-18 77.5h89q0 -67 67 -67q64 0 64 62
q0 20 -8.5 33t-25.5 18t-30.5 6.5t-34.5 1.5v64h15q15 0 23.5 1t22 5.5t20.5 16t7 30.5q0 51 -54 51q-62 0 -62 -62zM641 424h108v-265h50v-69h-50v-90h-95v90h-183v74zM542 159h112q0 45 0.5 86.5t1 65.5t0.5 25h-2z" />
    <glyph glyph-name="questiondown" unicode="&#xbf;" horiz-adv-x="611" 
d="M237 324h132q0 -77 -18 -117t-84 -86q-62 -43 -62 -99q0 -53 29 -76t68 -23q32 0 54 10.5t32.5 30t15 36t6.5 38.5v1h141q0 -50 -14.5 -91t-38.5 -67t-55.5 -43.5t-64.5 -25t-67 -7.5q-24 0 -50 3t-65.5 16t-68.5 34t-50.5 63t-21.5 97q0 57 29 98t92 86q35 25 48 48
t13 74zM227 391v141h146v-141h-146z" />
    <glyph glyph-name="Agrave" unicode="&#xc0;" horiz-adv-x="722" 
d="M228 148l-50 -148h-158l256 718h173l253 -718h-163l-46 148h-265zM360 556l-92 -284h183l-89 284h-2zM319 790l-147 146h154l94 -146h-101z" />
    <glyph glyph-name="Aacute" unicode="&#xc1;" horiz-adv-x="722" 
d="M228 148l-50 -148h-158l256 718h173l253 -718h-163l-46 148h-265zM360 556l-92 -284h183l-89 284h-2zM551 936l-147 -146h-101l94 146h154z" />
    <glyph glyph-name="Acircumflex" unicode="&#xc2;" horiz-adv-x="722" 
d="M228 148l-50 -148h-158l256 718h173l253 -718h-163l-46 148h-265zM360 556l-92 -284h183l-89 284h-2zM424 936l114 -146h-113l-64 82l-63 -82h-113l114 146h125z" />
    <glyph glyph-name="Atilde" unicode="&#xc3;" horiz-adv-x="722" 
d="M228 148l-50 -148h-158l256 718h173l253 -718h-163l-46 148h-265zM360 556l-92 -284h183l-89 284h-2zM480 923h65q-2 -12 -5 -24t-11.5 -30.5t-19.5 -32t-30 -23.5t-43 -10q-28 0 -76 16q-64 20 -71 20q-23 0 -33.5 -14.5t-13.5 -28.5h-64q10 48 29 76q34 47 92 47
q22 0 72 -19q44 -17 62 -17q38 0 47 40z" />
    <glyph glyph-name="Adieresis" unicode="&#xc4;" horiz-adv-x="722" 
d="M228 148l-50 -148h-158l256 718h173l253 -718h-163l-46 148h-265zM360 556l-92 -284h183l-89 284h-2zM327 915v-115h-126v115h126zM522 915v-115h-126v115h126z" />
    <glyph glyph-name="Aring" unicode="&#xc5;" horiz-adv-x="722" 
d="M228 148l-50 -148h-158l256 718h173l253 -718h-163l-46 148h-265zM360 556l-92 -284h183l-89 284h-2zM470 858q0 -45 -34 -74.5t-74 -29.5t-74 29.5t-34 74.5t34 74.5t74 29.5t74 -29.5t34 -74.5zM414 858q0 22 -15 37t-37 15t-37 -15t-15 -37t15 -37t37 -15t37 15t15 37
z" />
    <glyph glyph-name="AE" unicode="&#xc6;" horiz-adv-x="1000" 
d="M576 313v-186h378v-127h-525v153h-215l-52 -153h-157l262 718h680v-127h-371v-151h334v-127h-334zM253 271h176v320h-65z" />
    <glyph glyph-name="Ccedilla" unicode="&#xc7;" horiz-adv-x="722" 
d="M534 246h150q-23 -118 -97 -188.5t-197 -75.5l-26 -37q16 4 30 4q30 0 58.5 -18t28.5 -60q0 -44 -34.5 -71.5t-89.5 -27.5q-46 0 -115 25l22 48q52 -16 77 -16q17 0 32 10.5t15 28.5q0 16 -11.5 26t-27.5 10q-14 0 -40 -8l-21 20l44 67q-131 13 -209.5 110t-78.5 265
q0 182 92.5 280.5t237.5 98.5q77 0 137.5 -24.5t96 -63.5t54.5 -81t22 -85h-150q-5 19 -9 30.5t-16.5 31.5t-27.5 31.5t-43 21t-63 9.5q-30 0 -58.5 -11.5t-57 -37.5t-45.5 -78t-17 -124q0 -68 17.5 -121.5t58.5 -88.5t102 -35q63 0 104.5 34.5t54.5 100.5z" />
    <glyph glyph-name="Egrave" unicode="&#xc8;" horiz-adv-x="667" 
d="M604 718v-127h-381v-151h350v-127h-350v-186h398v-127h-545v718h528zM291 790l-147 146h154l94 -146h-101z" />
    <glyph glyph-name="Eacute" unicode="&#xc9;" horiz-adv-x="667" 
d="M604 718v-127h-381v-151h350v-127h-350v-186h398v-127h-545v718h528zM523 936l-147 -146h-101l94 146h154z" />
    <glyph glyph-name="Ecircumflex" unicode="&#xca;" horiz-adv-x="667" 
d="M604 718v-127h-381v-151h350v-127h-350v-186h398v-127h-545v718h528zM396 936l114 -146h-113l-64 82l-63 -82h-113l114 146h125z" />
    <glyph glyph-name="Edieresis" unicode="&#xcb;" horiz-adv-x="667" 
d="M604 718v-127h-381v-151h350v-127h-350v-186h398v-127h-545v718h528zM299 915v-115h-126v115h126zM494 915v-115h-126v115h126z" />
    <glyph glyph-name="Igrave" unicode="&#xcc;" horiz-adv-x="278" 
d="M214 718v-718h-150v718h150zM97 790l-147 146h154l94 -146h-101z" />
    <glyph glyph-name="Iacute" unicode="&#xcd;" horiz-adv-x="278" 
d="M214 718v-718h-150v718h150zM329 936l-147 -146h-101l94 146h154z" />
    <glyph glyph-name="Icircumflex" unicode="&#xce;" horiz-adv-x="278" 
d="M214 718v-718h-150v718h150zM202 936l114 -146h-113l-64 82l-63 -82h-113l114 146h125z" />
    <glyph glyph-name="Idieresis" unicode="&#xcf;" horiz-adv-x="278" 
d="M214 718v-718h-150v718h150zM105 915v-115h-126v115h126zM300 915v-115h-126v115h126z" />
    <glyph glyph-name="Eth" unicode="&#xd0;" horiz-adv-x="722" 
d="M76 316h-81v124h81v278h317q69 0 123 -23t85 -58t50.5 -82.5t26.5 -90.5t7 -88q0 -50 -8 -98.5t-29 -100t-53.5 -90t-86 -63t-121.5 -24.5h-311v316zM223 594v-154h166v-124h-166v-192h146q58 0 96 37t52.5 88.5t14.5 115.5q0 61 -11.5 105t-27.5 67.5t-40.5 37t-43 16.5
t-42.5 3h-144z" />
    <glyph glyph-name="Ntilde" unicode="&#xd1;" horiz-adv-x="722" 
d="M514 218v500h140v-718h-150l-293 512h-2v-512h-140v718h158l285 -500h2zM480 923h65q-2 -12 -5 -24t-11.5 -30.5t-19.5 -32t-30 -23.5t-43 -10q-28 0 -76 16q-64 20 -71 20q-23 0 -33.5 -14.5t-13.5 -28.5h-64q10 48 29 76q34 47 92 47q22 0 72 -19q44 -17 62 -17
q38 0 47 40z" />
    <glyph glyph-name="Ograve" unicode="&#xd2;" horiz-adv-x="778" 
d="M44 359q0 69 14.5 126.5t37 96t54.5 67.5t63 45.5t66 26.5t60.5 13t49.5 3t49.5 -3t60.5 -13t66 -26.5t63 -45.5t54.5 -67.5t37 -96t14.5 -126.5t-14.5 -126.5t-37 -96t-54.5 -67.5t-63 -45.5t-66 -26.5t-60.5 -13t-49.5 -3t-49.5 3t-60.5 13t-66 26.5t-63 45.5
t-54.5 67.5t-37 96t-14.5 126.5zM194 359q0 -71 18.5 -123t49 -78.5t62 -38t65.5 -11.5t65.5 11.5t62 38t49 78.5t18.5 123t-18.5 123t-49 78.5t-62 38t-65.5 11.5t-65.5 -11.5t-62 -38t-49 -78.5t-18.5 -123zM347 790l-147 146h154l94 -146h-101z" />
    <glyph glyph-name="Oacute" unicode="&#xd3;" horiz-adv-x="778" 
d="M44 359q0 69 14.5 126.5t37 96t54.5 67.5t63 45.5t66 26.5t60.5 13t49.5 3t49.5 -3t60.5 -13t66 -26.5t63 -45.5t54.5 -67.5t37 -96t14.5 -126.5t-14.5 -126.5t-37 -96t-54.5 -67.5t-63 -45.5t-66 -26.5t-60.5 -13t-49.5 -3t-49.5 3t-60.5 13t-66 26.5t-63 45.5
t-54.5 67.5t-37 96t-14.5 126.5zM194 359q0 -71 18.5 -123t49 -78.5t62 -38t65.5 -11.5t65.5 11.5t62 38t49 78.5t18.5 123t-18.5 123t-49 78.5t-62 38t-65.5 11.5t-65.5 -11.5t-62 -38t-49 -78.5t-18.5 -123zM579 936l-147 -146h-101l94 146h154z" />
    <glyph glyph-name="Ocircumflex" unicode="&#xd4;" horiz-adv-x="778" 
d="M44 359q0 69 14.5 126.5t37 96t54.5 67.5t63 45.5t66 26.5t60.5 13t49.5 3t49.5 -3t60.5 -13t66 -26.5t63 -45.5t54.5 -67.5t37 -96t14.5 -126.5t-14.5 -126.5t-37 -96t-54.5 -67.5t-63 -45.5t-66 -26.5t-60.5 -13t-49.5 -3t-49.5 3t-60.5 13t-66 26.5t-63 45.5
t-54.5 67.5t-37 96t-14.5 126.5zM194 359q0 -71 18.5 -123t49 -78.5t62 -38t65.5 -11.5t65.5 11.5t62 38t49 78.5t18.5 123t-18.5 123t-49 78.5t-62 38t-65.5 11.5t-65.5 -11.5t-62 -38t-49 -78.5t-18.5 -123zM452 936l114 -146h-113l-64 82l-63 -82h-113l114 146h125z" />
    <glyph glyph-name="Otilde" unicode="&#xd5;" horiz-adv-x="778" 
d="M44 359q0 69 14.5 126.5t37 96t54.5 67.5t63 45.5t66 26.5t60.5 13t49.5 3t49.5 -3t60.5 -13t66 -26.5t63 -45.5t54.5 -67.5t37 -96t14.5 -126.5t-14.5 -126.5t-37 -96t-54.5 -67.5t-63 -45.5t-66 -26.5t-60.5 -13t-49.5 -3t-49.5 3t-60.5 13t-66 26.5t-63 45.5
t-54.5 67.5t-37 96t-14.5 126.5zM194 359q0 -71 18.5 -123t49 -78.5t62 -38t65.5 -11.5t65.5 11.5t62 38t49 78.5t18.5 123t-18.5 123t-49 78.5t-62 38t-65.5 11.5t-65.5 -11.5t-62 -38t-49 -78.5t-18.5 -123zM508 923h65q-2 -12 -5 -24t-11.5 -30.5t-19.5 -32t-30 -23.5
t-43 -10q-28 0 -76 16q-64 20 -71 20q-23 0 -33.5 -14.5t-13.5 -28.5h-64q10 48 29 76q34 47 92 47q22 0 72 -19q44 -17 62 -17q38 0 47 40z" />
    <glyph glyph-name="Odieresis" unicode="&#xd6;" horiz-adv-x="778" 
d="M44 359q0 69 14.5 126.5t37 96t54.5 67.5t63 45.5t66 26.5t60.5 13t49.5 3t49.5 -3t60.5 -13t66 -26.5t63 -45.5t54.5 -67.5t37 -96t14.5 -126.5t-14.5 -126.5t-37 -96t-54.5 -67.5t-63 -45.5t-66 -26.5t-60.5 -13t-49.5 -3t-49.5 3t-60.5 13t-66 26.5t-63 45.5
t-54.5 67.5t-37 96t-14.5 126.5zM194 359q0 -71 18.5 -123t49 -78.5t62 -38t65.5 -11.5t65.5 11.5t62 38t49 78.5t18.5 123t-18.5 123t-49 78.5t-62 38t-65.5 11.5t-65.5 -11.5t-62 -38t-49 -78.5t-18.5 -123zM355 915v-115h-126v115h126zM550 915v-115h-126v115h126z" />
    <glyph glyph-name="multiply" unicode="&#xd7;" horiz-adv-x="584" 
d="M213 253l-173 173l79 79l173 -173l173 173l79 -79l-173 -173l174 -173l-80 -79l-173 173l-172 -173l-80 79z" />
    <glyph glyph-name="Oslash" unicode="&#xd8;" horiz-adv-x="778" 
d="M744 707l-84 -92q74 -96 74 -256q0 -69 -14.5 -126.5t-37 -96t-54.5 -67.5t-63 -45.5t-66 -26.5t-60.5 -13t-49.5 -3q-139 0 -232 82l-82 -90l-42 38l85 93q-74 95 -74 255q0 69 14.5 126.5t37 96t54.5 67.5t63 45.5t66 26.5t60.5 13t49.5 3q137 0 232 -81l81 89z
M221 218l304 333q-54 59 -136 59q-34 0 -65.5 -11.5t-62 -38t-49 -78.5t-18.5 -123q0 -85 27 -141zM556 501l-304 -333q53 -60 137 -60q34 0 65.5 11.5t62 38t49 78.5t18.5 123q0 89 -28 142z" />
    <glyph glyph-name="Ugrave" unicode="&#xd9;" horiz-adv-x="722" 
d="M651 718v-467q0 -138 -77 -204t-218 -66q-150 0 -228 87q-53 60 -56 174v476h153v-466q0 -71 36 -107.5t92 -36.5q145 0 145 137v473h153zM319 790l-147 146h154l94 -146h-101z" />
    <glyph glyph-name="Uacute" unicode="&#xda;" horiz-adv-x="722" 
d="M651 718v-467q0 -138 -77 -204t-218 -66q-150 0 -228 87q-53 60 -56 174v476h153v-466q0 -71 36 -107.5t92 -36.5q145 0 145 137v473h153zM551 936l-147 -146h-101l94 146h154z" />
    <glyph glyph-name="Ucircumflex" unicode="&#xdb;" horiz-adv-x="722" 
d="M651 718v-467q0 -138 -77 -204t-218 -66q-150 0 -228 87q-53 60 -56 174v476h153v-466q0 -71 36 -107.5t92 -36.5q145 0 145 137v473h153zM424 936l114 -146h-113l-64 82l-63 -82h-113l114 146h125z" />
    <glyph glyph-name="Udieresis" unicode="&#xdc;" horiz-adv-x="722" 
d="M651 718v-467q0 -138 -77 -204t-218 -66q-150 0 -228 87q-53 60 -56 174v476h153v-466q0 -71 36 -107.5t92 -36.5q145 0 145 137v473h153zM327 915v-115h-126v115h126zM522 915v-115h-126v115h126z" />
    <glyph glyph-name="Yacute" unicode="&#xdd;" horiz-adv-x="667" 
d="M413 269v-269h-150v271l-248 447h177l149 -312l142 312h170zM523 936l-147 -146h-101l94 146h154z" />
    <glyph glyph-name="Thorn" unicode="&#xde;" horiz-adv-x="667" 
d="M76 0v718h150v-98h178q104 0 163.5 -63t59.5 -169q0 -23 -5 -49t-20.5 -59.5t-39.5 -59t-66.5 -43.5t-97.5 -18h-172v-159h-150zM226 283h139q39 0 64 12t34.5 33.5t11.5 34.5t2 32q0 53 -31.5 77t-100.5 24h-119v-213z" />
    <glyph glyph-name="germandbls" unicode="&#xdf;" horiz-adv-x="611" 
d="M279 -8v110q10 -1 29 -1q131 0 131 124q0 32 -10.5 55t-24 35t-38 19.5t-39.5 9t-41 3.5v97q22 1 33 2t29 5.5t27 13.5t16 25.5t7 40.5q0 88 -101 88q-34 0 -61 -21t-27 -68v-530h-140v539q0 81 59.5 136.5t173.5 55.5q27 0 51.5 -2.5t60.5 -14t61.5 -31.5t44 -58
t18.5 -90q0 -43 -21 -76t-52 -48q37 -17 62 -40t35 -50t13.5 -47t3.5 -45q0 -45 -13 -86.5t-40 -77.5t-76.5 -57.5t-115.5 -21.5q-19 0 -55 6z" />
    <glyph glyph-name="agrave" unicode="&#xe0;" 
d="M496 392v-288q0 -72 31 -83v-21h-151q-10 30 -13 63q-22 -22 -38.5 -35.5t-53 -27.5t-80.5 -14q-67 0 -114.5 39t-47.5 116q0 75 42 117.5t113 52.5l126 19q49 7 49 42q0 27 -17 42t-34 17.5t-41 2.5q-25 0 -42 -7t-26 -19t-12.5 -23t-5.5 -25h-135q6 58 27.5 97
t57.5 57.5t71 25t82 6.5q33 0 65.5 -6t68 -21.5t57 -48t21.5 -78.5zM359 191v68q-23 -18 -95 -29q-47 -8 -71 -24t-24 -56q0 -33 20 -48.5t45 -15.5q49 0 87 29t38 76zM236 604l-147 146h154l94 -146h-101z" />
    <glyph glyph-name="aacute" unicode="&#xe1;" 
d="M496 392v-288q0 -72 31 -83v-21h-151q-10 30 -13 63q-22 -22 -38.5 -35.5t-53 -27.5t-80.5 -14q-67 0 -114.5 39t-47.5 116q0 75 42 117.5t113 52.5l126 19q49 7 49 42q0 27 -17 42t-34 17.5t-41 2.5q-25 0 -42 -7t-26 -19t-12.5 -23t-5.5 -25h-135q6 58 27.5 97
t57.5 57.5t71 25t82 6.5q33 0 65.5 -6t68 -21.5t57 -48t21.5 -78.5zM359 191v68q-23 -18 -95 -29q-47 -8 -71 -24t-24 -56q0 -33 20 -48.5t45 -15.5q49 0 87 29t38 76zM468 750l-147 -146h-101l94 146h154z" />
    <glyph glyph-name="acircumflex" unicode="&#xe2;" 
d="M496 392v-288q0 -72 31 -83v-21h-151q-10 30 -13 63q-22 -22 -38.5 -35.5t-53 -27.5t-80.5 -14q-67 0 -114.5 39t-47.5 116q0 75 42 117.5t113 52.5l126 19q49 7 49 42q0 27 -17 42t-34 17.5t-41 2.5q-25 0 -42 -7t-26 -19t-12.5 -23t-5.5 -25h-135q6 58 27.5 97
t57.5 57.5t71 25t82 6.5q33 0 65.5 -6t68 -21.5t57 -48t21.5 -78.5zM359 191v68q-23 -18 -95 -29q-47 -8 -71 -24t-24 -56q0 -33 20 -48.5t45 -15.5q49 0 87 29t38 76zM341 750l114 -146h-113l-64 82l-63 -82h-113l114 146h125z" />
    <glyph glyph-name="atilde" unicode="&#xe3;" 
d="M496 392v-288q0 -72 31 -83v-21h-151q-10 30 -13 63q-22 -22 -38.5 -35.5t-53 -27.5t-80.5 -14q-67 0 -114.5 39t-47.5 116q0 75 42 117.5t113 52.5l126 19q49 7 49 42q0 27 -17 42t-34 17.5t-41 2.5q-25 0 -42 -7t-26 -19t-12.5 -23t-5.5 -25h-135q6 58 27.5 97
t57.5 57.5t71 25t82 6.5q33 0 65.5 -6t68 -21.5t57 -48t21.5 -78.5zM359 191v68q-23 -18 -95 -29q-47 -8 -71 -24t-24 -56q0 -33 20 -48.5t45 -15.5q49 0 87 29t38 76zM397 737h65q-2 -12 -5 -24t-11.5 -30.5t-19.5 -32t-30 -23.5t-43 -10q-28 0 -76 16q-64 20 -71 20
q-23 0 -33.5 -14.5t-13.5 -28.5h-64q10 48 29 76q34 47 92 47q22 0 72 -19q44 -17 62 -17q38 0 47 40z" />
    <glyph glyph-name="adieresis" unicode="&#xe4;" 
d="M496 392v-288q0 -72 31 -83v-21h-151q-10 30 -13 63q-22 -22 -38.5 -35.5t-53 -27.5t-80.5 -14q-67 0 -114.5 39t-47.5 116q0 75 42 117.5t113 52.5l126 19q49 7 49 42q0 27 -17 42t-34 17.5t-41 2.5q-25 0 -42 -7t-26 -19t-12.5 -23t-5.5 -25h-135q6 58 27.5 97
t57.5 57.5t71 25t82 6.5q33 0 65.5 -6t68 -21.5t57 -48t21.5 -78.5zM359 191v68q-23 -18 -95 -29q-47 -8 -71 -24t-24 -56q0 -33 20 -48.5t45 -15.5q49 0 87 29t38 76zM244 729v-115h-126v115h126zM439 729v-115h-126v115h126z" />
    <glyph glyph-name="aring" unicode="&#xe5;" 
d="M496 392v-288q0 -72 31 -83v-21h-151q-10 30 -13 63q-22 -22 -38.5 -35.5t-53 -27.5t-80.5 -14q-67 0 -114.5 39t-47.5 116q0 75 42 117.5t113 52.5l126 19q49 7 49 42q0 27 -17 42t-34 17.5t-41 2.5q-25 0 -42 -7t-26 -19t-12.5 -23t-5.5 -25h-135q6 58 27.5 97
t57.5 57.5t71 25t82 6.5q33 0 65.5 -6t68 -21.5t57 -48t21.5 -78.5zM359 191v68q-23 -18 -95 -29q-47 -8 -71 -24t-24 -56q0 -33 20 -48.5t45 -15.5q49 0 87 29t38 76zM387 672q0 -45 -34 -74.5t-74 -29.5t-74 29.5t-34 74.5t34 74.5t74 29.5t74 -29.5t34 -74.5zM331 672
q0 22 -15 37t-37 15t-37 -15t-15 -37t15 -37t37 -15t37 15t15 37z" />
    <glyph glyph-name="ae" unicode="&#xe6;" horiz-adv-x="889" 
d="M708 156h144q-26 -89 -91 -129.5t-143 -40.5h-7q-58 0 -99.5 15.5t-57 30t-35.5 40.5q-25 -40 -79.5 -63t-121.5 -23q-34 0 -63 6.5t-59.5 22.5t-48.5 50t-18 84q0 55 32 97.5t103 54.5l131 22q48 8 60 17t12 35q0 11 -2 18t-10 18t-30 17t-56 6q-27 0 -45 -8t-26 -21
t-10.5 -23.5t-2.5 -22.5h-137q14 187 240 187q97 0 164 -59q22 17 36.5 26.5t48 20.5t71.5 12q35 0 67 -7t66.5 -26.5t59.5 -51t41 -85t16 -123.5v-25h-365q2 -19 3.5 -30t9.5 -32.5t20 -34t36 -23t56 -10.5q31 0 56.5 15.5t33.5 42.5zM364 188v67q-21 -18 -104 -30
q-48 -7 -69.5 -21.5t-21.5 -55.5q0 -30 21 -46t58 -16q42 0 79 30.5t37 71.5zM497 319h217q-5 59 -36.5 85.5t-71.5 26.5q-96 0 -109 -112z" />
    <glyph glyph-name="ccedilla" unicode="&#xe7;" 
d="M161 -203l22 48q52 -16 77 -16q17 0 32 10.5t15 28.5q0 16 -11.5 26t-27.5 10q-14 0 -40 -8l-21 20l47 71q-63 5 -108.5 31t-68.5 66.5t-33 81t-10 85.5q0 136 63 215.5t192 79.5q36 0 71 -9t72 -30t62 -63.5t30 -101.5h-142q-6 34 -26 60t-60 26h-7q-41 0 -67.5 -26
t-35 -58t-8.5 -70q0 -31 2.5 -53t11.5 -53.5t33 -49t61 -17.5q47 0 71 32.5t24 60.5h142q-2 -25 -12 -53t-31.5 -62.5t-65 -59.5t-101.5 -31l-30 -43q16 4 30 4q30 0 58.5 -18t28.5 -60q0 -44 -34.5 -71.5t-89.5 -27.5q-46 0 -115 25z" />
    <glyph glyph-name="egrave" unicode="&#xe8;" 
d="M378 156h144q-26 -89 -91 -129.5t-143 -40.5q-265 0 -265 291q0 26 4 53.5t19.5 68.5t41 71.5t75 53t115.5 22.5q35 0 67 -7t66.5 -26.5t59.5 -51t41 -85t16 -123.5v-25h-365q2 -19 3.5 -30t9.5 -32.5t20 -34t36 -23t56 -10.5q31 0 56.5 15.5t33.5 42.5zM167 319h217
q-5 59 -36.5 85.5t-71.5 26.5q-96 0 -109 -112zM236 604l-147 146h154l94 -146h-101z" />
    <glyph glyph-name="eacute" unicode="&#xe9;" 
d="M378 156h144q-26 -89 -91 -129.5t-143 -40.5q-265 0 -265 291q0 26 4 53.5t19.5 68.5t41 71.5t75 53t115.5 22.5q35 0 67 -7t66.5 -26.5t59.5 -51t41 -85t16 -123.5v-25h-365q2 -19 3.5 -30t9.5 -32.5t20 -34t36 -23t56 -10.5q31 0 56.5 15.5t33.5 42.5zM167 319h217
q-5 59 -36.5 85.5t-71.5 26.5q-96 0 -109 -112zM468 750l-147 -146h-101l94 146h154z" />
    <glyph glyph-name="ecircumflex" unicode="&#xea;" 
d="M378 156h144q-26 -89 -91 -129.5t-143 -40.5q-265 0 -265 291q0 26 4 53.5t19.5 68.5t41 71.5t75 53t115.5 22.5q35 0 67 -7t66.5 -26.5t59.5 -51t41 -85t16 -123.5v-25h-365q2 -19 3.5 -30t9.5 -32.5t20 -34t36 -23t56 -10.5q31 0 56.5 15.5t33.5 42.5zM167 319h217
q-5 59 -36.5 85.5t-71.5 26.5q-96 0 -109 -112zM341 750l114 -146h-113l-64 82l-63 -82h-113l114 146h125z" />
    <glyph glyph-name="edieresis" unicode="&#xeb;" 
d="M378 156h144q-26 -89 -91 -129.5t-143 -40.5q-265 0 -265 291q0 26 4 53.5t19.5 68.5t41 71.5t75 53t115.5 22.5q35 0 67 -7t66.5 -26.5t59.5 -51t41 -85t16 -123.5v-25h-365q2 -19 3.5 -30t9.5 -32.5t20 -34t36 -23t56 -10.5q31 0 56.5 15.5t33.5 42.5zM167 319h217
q-5 59 -36.5 85.5t-71.5 26.5q-96 0 -109 -112zM244 729v-115h-126v115h126zM439 729v-115h-126v115h126z" />
    <glyph glyph-name="igrave" unicode="&#xec;" horiz-adv-x="278" 
d="M69 532h140v-532h-140v532zM97 604l-147 146h154l94 -146h-101z" />
    <glyph glyph-name="iacute" unicode="&#xed;" horiz-adv-x="278" 
d="M69 532h140v-532h-140v532zM329 750l-147 -146h-101l94 146h154z" />
    <glyph glyph-name="icircumflex" unicode="&#xee;" horiz-adv-x="278" 
d="M69 532h140v-532h-140v532zM202 750l114 -146h-113l-64 82l-63 -82h-113l114 146h125z" />
    <glyph glyph-name="idieresis" unicode="&#xef;" horiz-adv-x="278" 
d="M69 532h140v-532h-140v532zM105 729v-115h-126v115h126zM300 729v-115h-126v115h126z" />
    <glyph glyph-name="eth" unicode="&#xf0;" horiz-adv-x="611" 
d="M306 405q-37 0 -64.5 -16.5t-40 -42t-18 -46.5t-5.5 -39q0 -76 34.5 -116.5t94.5 -40.5q41 0 69.5 19t39.5 49t14.5 51t3.5 42q0 18 -5 38.5t-17.5 45t-40 40.5t-65.5 16zM524 685l-101 -44q68 -64 111.5 -153t43.5 -193q0 -81 -24 -143t-64 -97t-85.5 -52t-95.5 -17
q-52 0 -99 15t-87.5 46.5t-64.5 87.5t-24 130q0 112 69 185t178 73q79 0 123 -55l2 2q-28 61 -97 121l-108 -47l-63 52l108 47q-41 30 -73 45l108 49q42 -17 79 -44l102 44z" />
    <glyph glyph-name="ntilde" unicode="&#xf1;" horiz-adv-x="611" 
d="M546 368v-368h-140v323q0 16 -1 26.5t-5.5 27t-13.5 26.5t-27.5 17.5t-43.5 7.5q-48 0 -79 -32t-31 -91v-305h-140v532h134v-78h2q55 92 160 92q81 0 133 -46.5t52 -131.5zM424 737h65q-2 -12 -5 -24t-11.5 -30.5t-19.5 -32t-30 -23.5t-43 -10q-28 0 -76 16
q-64 20 -71 20q-23 0 -33.5 -14.5t-13.5 -28.5h-64q10 48 29 76q34 47 92 47q22 0 72 -19q44 -17 62 -17q38 0 47 40z" />
    <glyph glyph-name="ograve" unicode="&#xf2;" horiz-adv-x="611" 
d="M578 266q0 -136 -78 -208t-194 -72t-194 72t-78 208t78 208t194 72t194 -72t78 -208zM434 266q0 29 -5 54.5t-18 51.5t-40 41t-65 15t-65 -15t-40 -41t-18 -51.5t-5 -54.5t5 -54.5t18 -51.5t40 -41t65 -15t65 15t40 41t18 51.5t5 54.5zM263 604l-147 146h154l94 -146
h-101z" />
    <glyph glyph-name="oacute" unicode="&#xf3;" horiz-adv-x="611" 
d="M578 266q0 -136 -78 -208t-194 -72t-194 72t-78 208t78 208t194 72t194 -72t78 -208zM434 266q0 29 -5 54.5t-18 51.5t-40 41t-65 15t-65 -15t-40 -41t-18 -51.5t-5 -54.5t5 -54.5t18 -51.5t40 -41t65 -15t65 15t40 41t18 51.5t5 54.5zM495 750l-147 -146h-101l94 146
h154z" />
    <glyph glyph-name="ocircumflex" unicode="&#xf4;" horiz-adv-x="611" 
d="M578 266q0 -136 -78 -208t-194 -72t-194 72t-78 208t78 208t194 72t194 -72t78 -208zM434 266q0 29 -5 54.5t-18 51.5t-40 41t-65 15t-65 -15t-40 -41t-18 -51.5t-5 -54.5t5 -54.5t18 -51.5t40 -41t65 -15t65 15t40 41t18 51.5t5 54.5zM368 750l114 -146h-113l-64 82
l-63 -82h-113l114 146h125z" />
    <glyph glyph-name="otilde" unicode="&#xf5;" horiz-adv-x="611" 
d="M578 266q0 -136 -78 -208t-194 -72t-194 72t-78 208t78 208t194 72t194 -72t78 -208zM434 266q0 29 -5 54.5t-18 51.5t-40 41t-65 15t-65 -15t-40 -41t-18 -51.5t-5 -54.5t5 -54.5t18 -51.5t40 -41t65 -15t65 15t40 41t18 51.5t5 54.5zM424 737h65q-2 -12 -5 -24
t-11.5 -30.5t-19.5 -32t-30 -23.5t-43 -10q-28 0 -76 16q-64 20 -71 20q-23 0 -33.5 -14.5t-13.5 -28.5h-64q10 48 29 76q34 47 92 47q22 0 72 -19q44 -17 62 -17q38 0 47 40z" />
    <glyph glyph-name="odieresis" unicode="&#xf6;" horiz-adv-x="611" 
d="M578 266q0 -136 -78 -208t-194 -72t-194 72t-78 208t78 208t194 72t194 -72t78 -208zM434 266q0 29 -5 54.5t-18 51.5t-40 41t-65 15t-65 -15t-40 -41t-18 -51.5t-5 -54.5t5 -54.5t18 -51.5t40 -41t65 -15t65 15t40 41t18 51.5t5 54.5zM271 729v-115h-126v115h126z
M466 729v-115h-126v115h126z" />
    <glyph glyph-name="divide" unicode="&#xf7;" horiz-adv-x="584" 
d="M544 197h-504v112h504v-112zM204 459q0 37 26.5 63t62.5 26q35 0 61.5 -26.5t26.5 -62.5q0 -33 -26.5 -60.5t-60.5 -27.5q-37 0 -63.5 26t-26.5 62zM204 46q0 37 26.5 63t62.5 26q35 0 61.5 -26.5t26.5 -62.5q0 -33 -26.5 -60.5t-60.5 -27.5q-37 0 -63.5 26t-26.5 62z
" />
    <glyph glyph-name="oslash" unicode="&#xf8;" horiz-adv-x="611" 
d="M420 351l-202 -213q31 -34 88 -34q38 0 65 15t40 41t18 51.5t5 54.5q0 52 -14 85zM193 179l203 214q-33 35 -90 35q-38 0 -65 -15t-40 -41t-18 -51.5t-5 -54.5q0 -51 15 -87zM589 528l-71 -74q60 -73 60 -188q0 -136 -78 -208t-194 -72q-106 0 -177 58l-69 -73l-38 29
l73 77q-61 74 -61 189q0 136 78 208t194 72q105 0 179 -59l69 73z" />
    <glyph glyph-name="ugrave" unicode="&#xf9;" horiz-adv-x="611" 
d="M545 532v-532h-134v75h-2q-50 -89 -162 -89q-83 0 -132 49t-49 147v350h140v-330q0 -98 91 -98q42 0 75 28.5t33 92.5v307h140zM263 604l-147 146h154l94 -146h-101z" />
    <glyph glyph-name="uacute" unicode="&#xfa;" horiz-adv-x="611" 
d="M545 532v-532h-134v75h-2q-50 -89 -162 -89q-83 0 -132 49t-49 147v350h140v-330q0 -98 91 -98q42 0 75 28.5t33 92.5v307h140zM495 750l-147 -146h-101l94 146h154z" />
    <glyph glyph-name="ucircumflex" unicode="&#xfb;" horiz-adv-x="611" 
d="M545 532v-532h-134v75h-2q-50 -89 -162 -89q-83 0 -132 49t-49 147v350h140v-330q0 -98 91 -98q42 0 75 28.5t33 92.5v307h140zM368 750l114 -146h-113l-64 82l-63 -82h-113l114 146h125z" />
    <glyph glyph-name="udieresis" unicode="&#xfc;" horiz-adv-x="611" 
d="M545 532v-532h-134v75h-2q-50 -89 -162 -89q-83 0 -132 49t-49 147v350h140v-330q0 -98 91 -98q42 0 75 28.5t33 92.5v307h140zM271 729v-115h-126v115h126zM466 729v-115h-126v115h126z" />
    <glyph glyph-name="yacute" unicode="&#xfd;" 
d="M539 532l-183 -523q-27 -82 -42.5 -119.5t-39.5 -64.5t-49.5 -33t-74.5 -6q-23 0 -63 2v112q12 -2 27 -2q43 0 63 14.5t29 65.5l-196 554h156l114 -392h2l109 392h148zM468 750l-147 -146h-101l94 146h154z" />
    <glyph glyph-name="thorn" unicode="&#xfe;" horiz-adv-x="611" 
d="M196 254q0 -65 30.5 -109t92.5 -44q42 0 69.5 28.5t36.5 62.5t9 70q0 71 -28.5 117t-90.5 46q-119 0 -119 -171zM202 68v-276h-140v926h140v-254h2q53 82 153 82q94 0 157.5 -71.5t63.5 -202.5q0 -120 -56.5 -203t-167.5 -83q-102 0 -150 82h-2z" />
    <glyph glyph-name="ydieresis" unicode="&#xff;" 
d="M539 532l-183 -523q-27 -82 -42.5 -119.5t-39.5 -64.5t-49.5 -33t-74.5 -6q-23 0 -63 2v112q12 -2 27 -2q43 0 63 14.5t29 65.5l-196 554h156l114 -392h2l109 392h148zM244 729v-115h-126v115h126zM439 729v-115h-126v115h126z" />
    <glyph glyph-name="dotlessi" unicode="&#x131;" horiz-adv-x="278" 
d="M69 532h140v-532h-140v532z" />
    <glyph glyph-name="Lslash" unicode="&#x141;" horiz-adv-x="611" 
d="M354 459l-128 -73v-256h357v-130h-507v311l-96 -55v78l96 55v329h150v-254l128 73v-78z" />
    <glyph glyph-name="lslash" unicode="&#x142;" horiz-adv-x="278" 
d="M296 523v-78l-87 -50v-395h-140v324l-87 -50v78l87 50v316h140v-245z" />
    <glyph glyph-name="OE" unicode="&#x152;" horiz-adv-x="1000" 
d="M628 591v-151h310v-127h-310v-186h333v-127h-470v50q-33 -37 -66.5 -53t-92.5 -16q-39 0 -77 10t-78 37t-70.5 68t-50 109t-19.5 154q0 71 16 134.5t49 120t93.5 90t140.5 33.5q42 0 76 -11.5t48 -22t31 -27.5v42h470v-127h-333zM481 196v325q0 48 -39.5 70t-84.5 22
q-88 0 -130.5 -72.5t-42.5 -189.5q0 -43 9.5 -84t28 -78.5t52 -60.5t77.5 -23q59 0 94.5 28.5t35.5 62.5z" />
    <glyph glyph-name="oe" unicode="&#x153;" horiz-adv-x="944" 
d="M762 156h144q-26 -89 -91 -129.5t-143 -40.5q-55 0 -96.5 13.5t-58 26t-37.5 34.5q-60 -74 -174 -74q-116 0 -194 72t-78 208t78 208t194 72q54 0 104 -22.5t79 -57.5q24 25 41.5 39t53 27.5t78.5 13.5q35 0 67 -7t66.5 -26.5t59.5 -51t41 -85t16 -123.5v-25h-365
q2 -19 3.5 -30t9.5 -32.5t20 -34t36 -23t56 -10.5q31 0 56.5 15.5t33.5 42.5zM434 266q0 29 -5 54.5t-18 51.5t-40 41t-65 15t-65 -15t-40 -41t-18 -51.5t-5 -54.5t5 -54.5t18 -51.5t40 -41t65 -15t65 15t40 41t18 51.5t5 54.5zM551 319h217q-5 59 -36.5 85.5t-71.5 26.5
q-96 0 -109 -112z" />
    <glyph glyph-name="Scaron" unicode="&#x160;" horiz-adv-x="667" 
d="M39 221h144q0 -18 6 -35.5t20.5 -37t47 -31.5t78.5 -12q150 0 150 93q0 38 -30.5 55.5t-99.5 33.5l-77 18q-46 11 -69.5 17.5t-59.5 23t-53.5 36t-31.5 54t-14 80.5q0 27 6 54t24.5 58t47.5 54.5t80 39t118 15.5q78 0 135.5 -23t87 -60.5t43.5 -74.5t14 -74h-144
q-2 18 -7 31.5t-18.5 33.5t-44.5 31.5t-77 11.5q-50 0 -87.5 -20.5t-37.5 -65.5q0 -20 7 -34t20.5 -22t23.5 -11.5t25 -7.5l175 -43q42 -10 71.5 -22.5t58 -34t43.5 -56t15 -80.5q0 -51 -16 -92t-43.5 -65t-57.5 -41t-65 -24.5t-58 -10t-43 -2.5q-75 0 -132 17t-89.5 41.5
t-52.5 58.5t-26.5 63.5t-6.5 59.5zM510 936l-114 -146h-125l-114 146h113l63 -82l64 82h113z" />
    <glyph glyph-name="scaron" unicode="&#x161;" 
d="M503 370h-137q-4 21 -10 34t-27 24.5t-57 11.5q-86 0 -86 -52q0 -23 34.5 -36t83 -22t97.5 -23t83.5 -49t34.5 -89q0 -55 -24 -93.5t-62.5 -56.5t-74 -25.5t-72.5 -7.5q-49 0 -91 9t-80 29t-61 57.5t-24 88.5h144q0 -78 116 -78q48 0 68.5 17.5t20.5 37.5q0 24 -34 37.5
t-82.5 22t-97 22.5t-82.5 49t-34 90q0 32 11 61.5t34 56.5t67 43.5t103 16.5q226 0 239 -176zM455 750l-114 -146h-125l-114 146h113l63 -82l64 82h113z" />
    <glyph glyph-name="Ydieresis" unicode="&#x178;" horiz-adv-x="667" 
d="M413 269v-269h-150v271l-248 447h177l149 -312l142 312h170zM299 915v-115h-126v115h126zM494 915v-115h-126v115h126z" />
    <glyph glyph-name="Zcaron" unicode="&#x17d;" horiz-adv-x="611" 
d="M586 127v-127h-561v127l371 464h-361v127h549v-118l-376 -473h378zM482 936l-114 -146h-125l-114 146h113l63 -82l64 82h113z" />
    <glyph glyph-name="zcaron" unicode="&#x17e;" horiz-adv-x="500" 
d="M470 417l-269 -302h279v-115h-460v109l273 311h-254v112h431v-115zM427 750l-114 -146h-125l-114 146h113l63 -82l64 82h113z" />
    <glyph glyph-name="florin" unicode="&#x192;" 
d="M475 477v-97h-134l-59 -359q-37 -231 -191 -231q-35 0 -101 21l24 111q29 -17 54 -17q34 0 48 28.5t28 112.5l57 334h-122v97h137l19 87q4 17 5.5 24.5t9 29t15 34t21.5 31t31 28.5t42 18t54 8q47 0 103 -19l-24 -108q-28 15 -55 15q-56 0 -67 -60l-15 -88h120z" />
    <glyph glyph-name="circumflex" unicode="&#x2c6;" horiz-adv-x="333" 
d="M229 750l114 -146h-113l-64 82l-63 -82h-113l114 146h125z" />
    <glyph glyph-name="caron" unicode="&#x2c7;" horiz-adv-x="333" 
d="M343 750l-114 -146h-125l-114 146h113l63 -82l64 82h113z" />
    <glyph glyph-name="uni02C9" unicode="&#x2c9;" horiz-adv-x="333" 
d="M339 678v-74h-345v74h345z" />
    <glyph glyph-name="breve" unicode="&#x2d8;" horiz-adv-x="333" 
d="M270 750h65q-1 -17 -5.5 -33t-16.5 -37.5t-30 -37.5t-51 -27t-75 -11q-47 0 -80.5 16.5t-49 42.5t-21.5 46.5t-8 40.5h66q3 -14 6.5 -22.5t13 -21.5t29.5 -19.5t50 -6.5q21 0 35.5 2t30.5 8.5t26.5 21.5t14.5 38z" />
    <glyph glyph-name="dotaccent" unicode="&#x2d9;" horiz-adv-x="333" 
d="M230 729v-115h-126v115h126z" />
    <glyph glyph-name="ring" unicode="&#x2da;" horiz-adv-x="333" 
d="M275 672q0 -45 -34 -74.5t-74 -29.5t-74 29.5t-34 74.5t34 74.5t74 29.5t74 -29.5t34 -74.5zM219 672q0 22 -15 37t-37 15t-37 -15t-15 -37t15 -37t37 -15t37 15t15 37z" />
    <glyph glyph-name="ogonek" unicode="&#x2db;" horiz-adv-x="333" 
d="M286 -155l18 -49q-62 -24 -109 -24q-54 0 -89 27t-35 66q0 46 29.5 81t79.5 54h84v-4q-46 -24 -72.5 -59.5t-26.5 -60.5q0 -23 14 -35.5t32 -12.5q30 0 75 17z" />
    <glyph glyph-name="tilde" unicode="&#x2dc;" horiz-adv-x="333" 
d="M285 737h65q-2 -12 -5 -24t-11.5 -30.5t-19.5 -32t-30 -23.5t-43 -10q-28 0 -76 16q-64 20 -71 20q-23 0 -33.5 -14.5t-13.5 -28.5h-64q10 48 29 76q34 47 92 47q22 0 72 -19q44 -17 62 -17q38 0 47 40z" />
    <glyph glyph-name="hungarumlaut" unicode="&#x2dd;" horiz-adv-x="333" 
d="M257 750l-147 -146h-101l94 146h154zM486 750l-147 -146h-101l94 146h154z" />
    <glyph glyph-name="uni03A9" unicode="&#x3a9;" horiz-adv-x="704" 
d="M173 101v3q-52 49 -86.5 122t-34.5 163q0 136 85 230t218 94q69 0 126.5 -28.5t93.5 -74.5t55.5 -101.5t19.5 -113.5q0 -91 -35.5 -167t-87.5 -124v-3h137v-101h-261v74q52 35 87 109.5t35 185.5q0 99 -45.5 169.5t-125.5 70.5q-79 0 -128 -69t-49 -176q0 -104 35.5 -181
t86.5 -109v-74h-261v101h135z" />
    <glyph glyph-name="uni03BC" unicode="&#x3bc;" horiz-adv-x="611" 
d="M546 0h-134v75h-2q-39 -89 -113 -89q-64 0 -92 57v-250h-140v739h140v-310q0 -118 92 -118q43 0 76 32.5t33 108.5v287h140v-532z" />
    <glyph glyph-name="pi" unicode="&#x3c0;" horiz-adv-x="597" 
d="M574 421h-71v-272q0 -91 13 -149h-120q-17 32 -17 143v278h-139q-4 -94 -22.5 -221t-42.5 -200h-120q25 85 42.5 209.5t19.5 211.5q-68 0 -98 -10l-14 83q43 34 162 34h417z" />
    <glyph glyph-name="uni0401" unicode="&#x401;" horiz-adv-x="667" 
d="M82 0v718h527v-124h-383v-159h352v-124h-352v-181h400v-130h-544zM171 780v118h130v-118h-130zM367 780v118h130v-118h-130z" />
    <glyph glyph-name="uni0402" unicode="&#x402;" horiz-adv-x="761" 
d="M573 718v-123h-230v-168q87 16 129 16q125 0 189.5 -79.5t64.5 -205.5q0 -219 -151 -314q-73 -46 -185 -51v121q84 9 130 58q56 61 56 178q0 170 -134 170q-45 0 -99 -13v-307h-150v595h-185v123h565z" />
    <glyph glyph-name="uni0403" unicode="&#x403;" horiz-adv-x="578" 
d="M82 0v718h483v-124h-333v-594h-150zM223 780l93 144h155l-148 -144h-100z" />
    <glyph glyph-name="uni0404" unicode="&#x404;" horiz-adv-x="722" 
d="M416 418v-118h-216q0 -85 47.5 -136t131.5 -52q109 0 148 120h150q-21 -110 -100.5 -180t-205.5 -70q-41 0 -81.5 9t-86 35t-80 66.5t-57 111t-22.5 160.5q0 101 35.5 184t112 135.5t181.5 52.5q128 0 208 -64t97 -177h-150q-33 111 -143 111q-48 0 -85 -19.5
t-57.5 -49.5t-30.5 -60.5t-10 -58.5h214z" />
    <glyph glyph-name="uni0405" unicode="&#x405;" horiz-adv-x="667" 
d="M328 736q33 0 66 -5t72.5 -20.5t69.5 -40t50 -68t20 -99.5h-144q0 55 -40 82t-106 27q-52 0 -90 -21.5t-38 -66.5q0 -20 7 -34t21 -21.5t23 -10.5t27 -7l175 -43q29 -7 48.5 -13t48.5 -21.5t46.5 -35t31 -53t13.5 -75.5q0 -97 -73 -162.5t-227 -65.5q-81 0 -144.5 23
t-105 78.5t-41.5 137.5h144q0 -60 44.5 -87.5t110.5 -27.5q26 0 50 4t47 14t37 29t14 45q0 17 -7.5 30t-17.5 21t-29.5 15.5t-34.5 11.5t-41 10l-77 18l-49.5 12t-45.5 13.5t-44 19t-35 25.5t-29.5 34.5t-17 45t-7.5 59.5q0 59 23 103t63 69.5t88 38t104 12.5z" />
    <glyph glyph-name="uni0406" unicode="&#x406;" horiz-adv-x="278" 
d="M64 0v718h150v-718h-150z" />
    <glyph glyph-name="uni0407" unicode="&#x407;" horiz-adv-x="278" 
d="M64 0v718h150v-718h-150zM-24 780v118h130v-118h-130zM172 780v118h130v-118h-130z" />
    <glyph glyph-name="uni0408" unicode="&#x408;" 
d="M336 217v501h150v-520q0 -64 -23 -109t-61 -67t-74.5 -31t-74.5 -9q-46 0 -82 9.5t-60 24t-41 39t-26 46.5t-14 55t-6 56.5t-1 58.5h144q0 -38 0.5 -56t5 -43.5t13 -36.5t25.5 -20t42 -9q24 0 40.5 7.5t24.5 16.5t12.5 26.5t5 28.5t0.5 32z" />
    <glyph glyph-name="uni0409" unicode="&#x409;" horiz-adv-x="1000" 
d="M10 0v125q33 -19 61 -19q21 0 34.5 11.5t19 30t7.5 37t3 36.5v9q6 110 11.5 282t6.5 206h468v-283h87q258 0 258 -218q0 -45 -11.5 -80.5t-27.5 -57.5t-41 -38.5t-45 -24t-46.5 -11.5t-38 -4.5t-26.5 -0.5h-259v594h-177l-6 -198q-1 -49 -2.5 -77l-3.5 -68.5t-5 -62.5
t-8.5 -53t-12.5 -47l-16.5 -36.5t-22.5 -31t-29.5 -20.5t-37.5 -14t-46 -4q-36 0 -94 18zM621 317v-193h71q124 0 124 96q0 32 -11 53t-32 29.5t-40 11.5t-47 3h-65z" />
    <glyph glyph-name="uni040A" unicode="&#x40a;" horiz-adv-x="989" 
d="M612 317v-193h70q124 0 124 96q0 32 -11 53t-32 29.5t-40 11.5t-47 3h-64zM70 0v718h150v-283h242v283h150v-283h86q258 0 258 -218q0 -45 -11.5 -80.5t-27.5 -57.5t-41 -38.5t-45 -24t-46.5 -11.5t-38 -4.5t-26.5 -0.5h-258v317h-242v-317h-150z" />
    <glyph glyph-name="uni040B" unicode="&#x40b;" horiz-adv-x="799" 
d="M11 594v124h562v-124h-230v-159h161q112 0 167.5 -41t55.5 -160v-234h-150v223q0 50 -24 69t-76 19h-134v-311h-150v594h-182z" />
    <glyph glyph-name="uni040C" unicode="&#x40c;" horiz-adv-x="722" 
d="M278 780l93 144h155l-148 -144h-100zM87 0v718h150v-292l274 292h194l-293 -294l310 -424h-190l-222 318l-73 -75v-243h-150z" />
    <glyph glyph-name="uni040E" unicode="&#x40e;" horiz-adv-x="667" 
d="M116 0v146q47 -20 75 -20q34 0 53 17t19 42q0 31 -27 87l-212 446h168l163 -386l143 386h162l-229 -530q-48 -111 -97 -158.5t-131 -47.5q-30 0 -87 18zM441 924h56q0 -144 -163 -144t-163 144h56q13 -66 107 -66t107 66z" />
    <glyph glyph-name="uni040F" unicode="&#x40f;" horiz-adv-x="722" 
d="M70 0v718h150v-588h282v588h150v-718h-226v-154h-130v154h-226z" />
    <glyph glyph-name="uni0410" unicode="&#x410;" horiz-adv-x="722" 
d="M20 0l257 718h171l254 -718h-163l-46 148h-265l-50 -148h-158zM360 556l-92 -284h183l-89 284h-2z" />
    <glyph glyph-name="uni0411" unicode="&#x411;" horiz-adv-x="722" 
d="M82 0v718h498v-124h-348v-159h188q258 0 258 -218q0 -45 -11.5 -80.5t-27.5 -57.5t-41 -38.5t-45 -24t-46.5 -11.5t-38 -4.5t-26.5 -0.5h-360zM232 317v-193h172q124 0 124 96q0 32 -11 53t-32 29.5t-40 11.5t-47 3h-166z" />
    <glyph glyph-name="uni0412" unicode="&#x412;" horiz-adv-x="722" 
d="M82 0v718h352q63 0 108.5 -17.5t68.5 -46.5t33.5 -58.5t10.5 -61.5q0 -54 -20.5 -88.5t-67.5 -58.5q111 -42 111 -172q0 -103 -72 -159t-195 -56h-329zM226 317v-193h187q52 0 83.5 24.5t31.5 72.5q0 56 -32.5 76t-86.5 20h-183zM226 594v-159h185q43 0 71.5 20.5
t28.5 61.5q0 77 -96 77h-189z" />
    <glyph glyph-name="uni0413" unicode="&#x413;" horiz-adv-x="578" 
d="M82 0v718h483v-124h-333v-594h-150z" />
    <glyph glyph-name="uni0414" unicode="&#x414;" horiz-adv-x="722" 
d="M12 -154v278h63q43 112 65.5 235.5t25.5 358.5h489v-594h55v-278h-130v154h-438v-154h-130zM505 124v470h-207q-4 -288 -73 -470h280z" />
    <glyph glyph-name="uni0415" unicode="&#x415;" horiz-adv-x="667" 
d="M82 0v718h527v-124h-383v-159h352v-124h-352v-181h400v-130h-544z" />
    <glyph glyph-name="uni0416" unicode="&#x416;" horiz-adv-x="1000" 
d="M574 718v-288h29l214 288h171l-259 -328l259 -390h-179l-206 310h-29v-310h-145v310h-30l-208 -310h-179l263 390l-257 328h167l214 -288h30v288h145z" />
    <glyph glyph-name="uni0417" unicode="&#x417;" horiz-adv-x="611" 
d="M279 320v107q30 -3 31 -3q44 0 73.5 24.5t29.5 69.5q0 53 -33.5 76.5t-71.5 23.5q-105 0 -119 -107h-138q2 18 4 31t9.5 38.5t18 44t31 41t47.5 36.5t68 24t91 10q65 0 113.5 -18t74 -48t37.5 -63t12 -69q0 -110 -110 -146v-2q18 -5 31 -9.5t34 -17.5t34.5 -31t24 -49.5
t10.5 -72.5q0 -100 -70 -164t-208 -64q-44 0 -85 11t-80.5 35t-68 70.5t-39.5 110.5h138q8 -22 14.5 -34.5t21.5 -33t40.5 -31t59.5 -10.5q62 0 94.5 33t32.5 80q0 60 -35 83.5t-82 23.5h-35z" />
    <glyph glyph-name="uni0418" unicode="&#x418;" horiz-adv-x="722" 
d="M70 0v718h144v-489h2l284 489h152v-718h-144v486h-2l-284 -486h-152z" />
    <glyph glyph-name="uni0419" unicode="&#x419;" horiz-adv-x="722" 
d="M70 0v718h144v-489h2l284 489h152v-718h-144v486h-2l-284 -486h-152zM468 924h56q0 -144 -163 -144t-163 144h56q13 -66 107 -66t107 66z" />
    <glyph glyph-name="uni041A" unicode="&#x41a;" horiz-adv-x="722" 
d="M87 0v718h150v-292l274 292h194l-293 -294l310 -424h-190l-222 318l-73 -75v-243h-150z" />
    <glyph glyph-name="uni041B" unicode="&#x41b;" horiz-adv-x="740" 
d="M532 0v594h-210l-6 -198q-6 -165 -13 -229.5t-29 -107.5q-40 -77 -140 -77q-37 0 -96 18v125q33 -19 59 -19q58 0 64 87q14 221 20 525h501v-718h-150z" />
    <glyph glyph-name="uni041C" unicode="&#x41c;" horiz-adv-x="833" 
d="M70 0v718h219l126 -559h2l126 559h220v-718h-138v600h-2l-136 -600h-146l-131 600h-2v-600h-138z" />
    <glyph glyph-name="uni041D" unicode="&#x41d;" horiz-adv-x="722" 
d="M70 0v718h150v-273h282v273h150v-718h-150v321h-282v-321h-150z" />
    <glyph glyph-name="uni041E" unicode="&#x41e;" horiz-adv-x="778" 
d="M44 359q0 168 89 272.5t256 104.5q157 0 251 -106.5t94 -270.5t-94 -270.5t-251 -106.5q-167 0 -256 104.5t-89 272.5zM389 112q90 0 142.5 69t52.5 178t-52.5 178t-142.5 69t-142.5 -69t-52.5 -178t52.5 -178t142.5 -69z" />
    <glyph glyph-name="uni041F" unicode="&#x41f;" horiz-adv-x="722" 
d="M70 0v718h582v-718h-150v594h-282v-594h-150z" />
    <glyph glyph-name="uni0420" unicode="&#x420;" horiz-adv-x="667" 
d="M82 0v718h326q112 0 168.5 -60t56.5 -170q0 -102 -64 -166t-173 -64h-164v-258h-150zM232 594v-212h142q109 0 109 106t-109 106h-142z" />
    <glyph glyph-name="uni0421" unicode="&#x421;" horiz-adv-x="722" 
d="M684 482h-150q-5 19 -9 30t-16.5 31t-28.5 32t-44.5 21.5t-65.5 9.5q-20 0 -40 -5t-45.5 -21t-44.5 -41.5t-32.5 -72t-13.5 -107.5q0 -116 47 -181.5t129 -65.5q36 0 64.5 10.5t44.5 23t29 34.5t17 34t10 32h149q-23 -130 -106 -197t-202 -67q-158 0 -245 101.5
t-87 275.5q0 96 27.5 170t74.5 118t103.5 66.5t120.5 22.5q67 0 121.5 -17.5t88.5 -44.5t57.5 -62t34 -67t12.5 -63z" />
    <glyph glyph-name="uni0422" unicode="&#x422;" horiz-adv-x="612" 
d="M12 594v124h588v-124h-219v-594h-150v594h-219z" />
    <glyph glyph-name="uni0423" unicode="&#x423;" horiz-adv-x="667" 
d="M116 0v146q47 -20 75 -20q34 0 53 17t19 42q0 31 -27 87l-212 446h168l163 -386l143 386h162l-229 -530q-48 -111 -97 -158.5t-131 -47.5q-30 0 -87 18z" />
    <glyph glyph-name="uni0424" unicode="&#x424;" horiz-adv-x="834" 
d="M345 0v78q-143 7 -229 84.5t-86 196.5q0 36 8.5 71t30.5 73t56 66.5t91 48.5t129 22v78h144v-78q72 -2 129 -22t91 -48.5t56 -66.5t30.5 -73t8.5 -71q0 -119 -86 -196.5t-229 -84.5v-78h-144zM345 182v354q-93 -3 -132.5 -53.5t-38.5 -118.5q0 -90 52 -136t119 -46z
M489 536v-353q67 0 119 46t52 136q0 68 -39.5 118t-131.5 53z" />
    <glyph glyph-name="uni0425" unicode="&#x425;" horiz-adv-x="667" 
d="M13 0l233 367l-220 351h179l129 -232l132 232h173l-220 -345l235 -373h-184l-136 245l-145 -245h-176z" />
    <glyph glyph-name="uni0426" unicode="&#x426;" horiz-adv-x="722" 
d="M70 0v718h150v-594h282v594h150v-594h60v-278h-130v154h-512z" />
    <glyph glyph-name="uni0427" unicode="&#x427;" horiz-adv-x="667" 
d="M453 0v287q-110 -23 -189 -23q-61 0 -104.5 13.5t-65.5 31t-34 46.5t-14 49t-2 50v264h144v-228q0 -68 27.5 -91t99.5 -23q79 0 138 19v323h150v-718h-150z" />
    <glyph glyph-name="uni0428" unicode="&#x428;" horiz-adv-x="944" 
d="M70 0v718h138v-594h195v594h138v-594h195v594h138v-718h-804z" />
    <glyph glyph-name="uni0429" unicode="&#x429;" horiz-adv-x="944" 
d="M70 0v718h138v-594h195v594h138v-594h195v594h138v-594h60v-278h-130v154h-734z" />
    <glyph glyph-name="uni042A" unicode="&#x42a;" horiz-adv-x="833" 
d="M387 317v-193h128q124 0 124 96q0 32 -11 53t-32 29.5t-40 11.5t-47 3h-122zM23 594v124h364v-283h144q258 0 258 -218q0 -45 -11.5 -80.5t-27.5 -57.5t-41 -38.5t-45 -24t-46.5 -11.5t-38 -4.5t-26.5 -0.5h-316v594h-214z" />
    <glyph glyph-name="uni042B" unicode="&#x42b;" horiz-adv-x="944" 
d="M730 0v718h150v-718h-150zM232 317v-193h127q124 0 124 96q0 32 -11 53t-32 29.5t-40 11.5t-47 3h-121zM82 0v718h150v-283h143q258 0 258 -218q0 -45 -11.5 -80.5t-27.5 -57.5t-41 -38.5t-45 -24t-46.5 -11.5t-38 -4.5t-26.5 -0.5h-315z" />
    <glyph glyph-name="uni042C" unicode="&#x42c;" horiz-adv-x="667" 
d="M232 317v-193h127q124 0 124 96q0 32 -11 53t-32 29.5t-40 11.5t-47 3h-121zM82 0v718h150v-283h143q258 0 258 -218q0 -45 -11.5 -80.5t-27.5 -57.5t-41 -38.5t-45 -24t-46.5 -11.5t-38 -4.5t-26.5 -0.5h-315z" />
    <glyph glyph-name="uni042D" unicode="&#x42d;" horiz-adv-x="722" 
d="M306 300v118h214q0 28 -10 58.5t-30.5 60.5t-57.5 49.5t-85 19.5q-110 0 -143 -111h-150q17 113 97 177t208 64q105 0 181.5 -52.5t112 -135.5t35.5 -184q0 -90 -22.5 -160.5t-57 -111t-80 -66.5t-86 -35t-81.5 -9q-126 0 -205.5 70t-100.5 180h150q39 -120 148 -120
q84 1 131.5 52t47.5 136h-216z" />
    <glyph glyph-name="uni042E" unicode="&#x42e;" horiz-adv-x="1000" 
d="M70 0v718h144v-300h93q12 132 97 225t224 93q43 0 85 -9.5t87 -35.5t78.5 -66t55.5 -107t22 -153q0 -175 -89.5 -279t-238.5 -104q-147 0 -226.5 89t-94.5 229h-93v-300h-144zM451 360q0 -124 47 -186t130 -62t130.5 62t47.5 186q0 123 -47.5 184.5t-130.5 61.5
q-82 0 -129.5 -61.5t-47.5 -184.5z" />
    <glyph glyph-name="uni042F" unicode="&#x42f;" horiz-adv-x="724" 
d="M654 718v-718h-145v283h-134q-35 0 -51.5 -1t-41 -7t-35.5 -18t-21 -35t-13 -58l-5 -68q-5 -61 -18 -96h-156q10 19 14.5 32.5t6.5 25t6 48.5l7 68q4 36 8.5 57.5t15.5 44t31.5 36.5t51.5 24q-43 16 -65 39q-51 51 -51 132q0 99 73 160q28 24 69.5 36t70.5 13.5t82 1.5
h300zM509 401v191h-169q-52 0 -73 -8q-58 -22 -58 -90q0 -26 10 -45t22.5 -28t34 -14t33.5 -5.5t31 -0.5h169z" />
    <glyph glyph-name="uni0430" unicode="&#x430;" 
d="M496 387v-282q0 -74 32 -83v-22h-153q-13 31 -13 62q-28 -28 -43.5 -41t-49 -25t-77.5 -12q-74 0 -119 42.5t-45 121.5q0 66 39.5 110t106.5 54l135 20q14 2 22 4.5t17.5 12.5t9.5 27q0 60 -85 60q-51 0 -69 -18t-23 -55h-138q0 16 4 34.5t19 46.5t38 49.5t66 37.5
t100 17q226 0 226 -161zM358 206v54q-33 -17 -59 -22l-37 -7q-51 -10 -73.5 -27.5t-22.5 -55.5q0 -33 19.5 -49.5t50.5 -16.5q16 0 33.5 4.5t39 16.5t35.5 38.5t14 64.5z" />
    <glyph glyph-name="uni0431" unicode="&#x431;" horiz-adv-x="611" 
d="M391 726h125q-6 -31 -19 -52t-26 -32.5t-39 -18.5t-42.5 -9t-51.5 -5q-34 -3 -52.5 -5.5t-42 -12t-36 -25.5t-23.5 -44.5t-16 -69.5q40 42 79 56.5t84 14.5q115 0 181 -71t66 -188q0 -128 -73 -204.5t-198 -76.5q-93 0 -152.5 38t-91.5 122q-29 77 -29 199
q0 54 7.5 103.5t25 102.5t53 91.5t85.5 54.5q53 16 142 16q17 0 27 2.5t12 5t5 8.5zM179 266q0 -69 31 -116.5t97 -47.5q128 0 128 164t-128 164q-66 0 -97 -47.5t-31 -116.5z" />
    <glyph glyph-name="uni0432" unicode="&#x432;" horiz-adv-x="611" 
d="M208 434v-111h121q45 0 62.5 14t17.5 43q0 54 -76 54h-125zM70 0v532h290q187 0 187 -140q0 -76 -63 -107q82 -29 82 -119q0 -75 -49.5 -120.5t-133.5 -45.5h-313zM208 231v-133h121q93 0 93 66q0 39 -20.5 53t-72.5 14h-121z" />
    <glyph glyph-name="uni0433" unicode="&#x433;" horiz-adv-x="444" 
d="M66 0v532h358v-112h-220v-420h-138z" />
    <glyph glyph-name="uni0434" unicode="&#x434;" horiz-adv-x="649" 
d="M15 -128v240h60q63 175 81 420h416v-420h62v-240h-130v128h-359v-128h-130zM214 112h220v308h-158q-20 -181 -62 -308z" />
    <glyph glyph-name="uni0435" unicode="&#x435;" 
d="M530 223h-365q0 -15 4 -32.5t15.5 -41t39 -38.5t66.5 -15q30 0 56 17t34 45h143q0 -24 -15 -52.5t-42.5 -56.5t-76 -46.5t-107.5 -18.5q-115 0 -185.5 70t-70.5 218q0 118 63 197t189 79q135 0 193.5 -84t58.5 -241zM170 315h216q0 64 -33 92.5t-75 28.5t-75 -28.5
t-33 -92.5z" />
    <glyph glyph-name="uni0436" unicode="&#x436;" horiz-adv-x="834" 
d="M487 532v-211h26l146 211h158l-179 -246l188 -286h-167l-146 226h-26v-226h-138v226h-30l-150 -226h-161l189 286l-177 246h158l145 -211h26v211h138z" />
    <glyph glyph-name="uni0437" unicode="&#x437;" horiz-adv-x="500" 
d="M165 385h-130q9 61 46 101q58 62 177 62q95 0 148.5 -44.5t53.5 -105.5q0 -29 -10.5 -50.5t-22 -31.5t-37.5 -27v-2q88 -39 88 -133q0 -83 -66 -126.5t-154 -43.5q-206 0 -236 183h132q12 -42 33 -63.5t60 -21.5q46 0 66.5 25t20.5 55q0 69 -87 69q-13 0 -39 -4v96h29
q38 0 61.5 16.5t23.5 46.5q0 64 -75 64q-70 0 -82 -65z" />
    <glyph glyph-name="uni0438" unicode="&#x438;" horiz-adv-x="611" 
d="M66 0v532h138v-328h2l194 328h145v-532h-138v321h-2l-188 -321h-151z" />
    <glyph glyph-name="uni0439" unicode="&#x439;" horiz-adv-x="611" 
d="M412 755h56q0 -144 -163 -144t-163 144h56q13 -66 107 -66t107 66zM66 0v532h138v-328h2l194 328h145v-532h-138v321h-2l-188 -321h-151z" />
    <glyph glyph-name="uni043A" unicode="&#x43a;" horiz-adv-x="611" 
d="M70 0v532h138v-202l199 202h184l-220 -221l229 -311h-180l-153 211l-59 -57v-154h-138z" />
    <glyph glyph-name="uni043B" unicode="&#x43b;" horiz-adv-x="667" 
d="M588 532v-532h-138v420h-174l-6 -195q-1 -29 -2 -47.5t-5 -46.5t-10.5 -46t-18.5 -39t-29 -33.5t-43 -20.5t-58 -8q-45 0 -70 10v116q18 -8 43 -8q29 0 40.5 26.5t13.5 80.5l8 323h449z" />
    <glyph glyph-name="uni043C" unicode="&#x43c;" horiz-adv-x="722" 
d="M66 0v532h208l90 -386h2l88 386h202v-532h-130v428h-2l-100 -428h-126l-100 428h-2v-428h-130z" />
    <glyph glyph-name="uni043D" unicode="&#x43d;" horiz-adv-x="611" 
d="M66 0v532h138v-192h203v192h138v-532h-138v228h-203v-228h-138z" />
    <glyph glyph-name="uni043E" unicode="&#x43e;" horiz-adv-x="612" 
d="M34 266q0 125 74 203.5t198 78.5q126 0 199 -78.5t73 -203.5t-73 -203.5t-199 -78.5q-124 0 -198 78.5t-74 203.5zM178 266q0 -69 31 -116.5t97 -47.5q128 0 128 164t-128 164q-66 0 -97 -47.5t-31 -116.5z" />
    <glyph glyph-name="uni043F" unicode="&#x43f;" horiz-adv-x="611" 
d="M66 0v532h479v-532h-138v420h-203v-420h-138z" />
    <glyph glyph-name="uni0440" unicode="&#x440;" horiz-adv-x="611" 
d="M62 -206v738h132v-76h2q29 49 65.5 70.5t93.5 21.5q39 0 76 -14t71 -43.5t54.5 -85t20.5 -129.5q0 -134 -57.5 -213t-169.5 -79q-102 0 -148 82h-2v-272h-138zM314 424q-61 0 -90 -46.5t-29 -111.5q0 -26 5 -51.5t16.5 -52.5t36.5 -43.5t61 -16.5t61 16.5t36.5 43.5
t16.5 52.5t5 51.5q0 65 -29 111.5t-90 46.5z" />
    <glyph glyph-name="uni0441" unicode="&#x441;" 
d="M522 344h-144q-9 44 -30 65t-64 21q-106 0 -106 -164q0 -32 3 -56t13 -51t33 -42t57 -15q44 0 69 30.5t25 62.5h144q0 -18 -6.5 -42.5t-24 -55t-43 -55t-68.5 -41.5t-96 -17q-121 0 -185.5 73t-64.5 209q0 134 67.5 208t182.5 74q40 0 77.5 -10t73 -31.5t59 -63.5
t28.5 -99z" />
    <glyph glyph-name="uni0442" unicode="&#x442;" horiz-adv-x="500" 
d="M181 0v420h-161v112h460v-112h-161v-420h-138z" />
    <glyph glyph-name="uni0443" unicode="&#x443;" 
d="M542 532l-183 -523q-14 -42 -21.5 -62.5t-19 -48.5t-19 -40t-20 -27.5t-24 -21t-29 -12t-36.5 -8t-46 -1.5q-21 0 -54 3v112q33 -3 41 -3q39 0 58.5 24.5t19.5 47.5l-195 560h155l114 -392h2l109 392h148z" />
    <glyph glyph-name="uni0444" unicode="&#x444;" horiz-adv-x="832" 
d="M347 -206v258h-2q-40 -68 -120 -68t-135.5 75.5t-55.5 208.5q0 80 19 138t50 87t62.5 42t63.5 13q79 0 116 -68h2v238h138v-238h2q37 68 117 68q32 0 63 -13t62 -42t50 -87t19 -138q0 -133 -55.5 -208.5t-135.5 -75.5t-120 68h-2v-258h-138zM660 262q0 168 -100 168
q-75 0 -75 -97v-126q0 -52 16.5 -78.5t60.5 -26.5q30 0 50.5 15.5t30 42t13.5 51t4 51.5zM172 262q0 -27 4 -51.5t13.5 -51t30 -42t50.5 -15.5q44 0 60.5 26.5t16.5 78.5v126q0 97 -75 97q-100 0 -100 -168z" />
    <glyph glyph-name="uni0445" unicode="&#x445;" 
d="M196 271l-173 261h170l87 -155l89 155h165l-174 -261l181 -271h-173l-88 160l-96 -160h-169z" />
    <glyph glyph-name="uni0446" unicode="&#x446;" horiz-adv-x="611" 
d="M66 0v532h138v-420h203v420h138v-420h55v-240h-128v128h-406z" />
    <glyph glyph-name="uni0447" unicode="&#x447;" 
d="M490 532v-532h-138v210q-58 -12 -121 -12q-97 0 -148.5 31.5t-51.5 110.5v192h138v-165q0 -43 19.5 -54t77.5 -11q56 0 86 10v220h138z" />
    <glyph glyph-name="uni0448" unicode="&#x448;" horiz-adv-x="834" 
d="M66 0v532h138v-420h144v420h138v-420h144v420h138v-532h-702z" />
    <glyph glyph-name="uni0449" unicode="&#x449;" horiz-adv-x="833" 
d="M66 0v532h138v-420h144v420h138v-420h144v420h138v-420h54v-240h-126v128h-630z" />
    <glyph glyph-name="uni044A" unicode="&#x44a;" horiz-adv-x="667" 
d="M20 420v112h286v-185h128q209 0 209 -174q0 -46 -17 -80.5t-39.5 -51.5t-53 -27t-49 -12t-35.5 -2h-281v420h-148zM306 243v-139h104q89 0 89 69q0 70 -101 70h-92z" />
    <glyph glyph-name="uni044B" unicode="&#x44b;" horiz-adv-x="833" 
d="M629 0v532h138v-532h-138zM66 0v532h138v-185h140q209 0 209 -174q0 -46 -17 -80.5t-39.5 -51.5t-53 -27t-49 -12t-35.5 -2h-293zM204 243v-139h116q89 0 89 69q0 70 -101 70h-104z" />
    <glyph glyph-name="uni044C" unicode="&#x44c;" horiz-adv-x="578" 
d="M65 0v532h138v-185h141q209 0 209 -174q0 -46 -17 -80.5t-39.5 -51.5t-53 -27t-49 -12t-35.5 -2h-294zM203 243v-139h117q89 0 89 69q0 70 -101 70h-105z" />
    <glyph glyph-name="uni044D" unicode="&#x44d;" 
d="M246 217v92h132q-4 52 -29 86.5t-71 34.5q-43 0 -64 -21t-30 -65h-144q5 57 28.5 99t59 63.5t73 31.5t77.5 10q114 0 179 -73.5t65 -208.5q0 -136 -64.5 -209t-185.5 -73q-53 0 -96 17t-68.5 41.5t-43 55t-24 55t-6.5 42.5h144q0 -32 25 -62.5t69 -30.5q47 0 74 32t32 83
h-132z" />
    <glyph glyph-name="uni044E" unicode="&#x44e;" horiz-adv-x="833" 
d="M660 266q0 75 -27 119.5t-85 44.5t-86 -45t-28 -119t28 -119t86 -45t85 44.5t27 119.5zM66 0v532h138v-209h92q17 114 83 169.5t169 55.5q127 0 191.5 -78t64.5 -203q0 -53 -14 -101t-42.5 -90t-80 -67t-119.5 -25q-228 0 -252 235h-92v-219h-138z" />
    <glyph glyph-name="uni044F" unicode="&#x44f;" horiz-adv-x="611" 
d="M546 532v-532h-139v196h-90q-64 0 -88.5 -14t-26.5 -65l-2 -51q-3 -43 -12 -66h-146q16 28 22 80l7 64q5 46 18.5 66t56.5 33q-50 16 -74 55q-19 28 -19 74q0 95 77 137q42 23 130 23h286zM407 294v134h-111q-19 0 -29 -0.5t-25.5 -4t-23 -10t-14 -20t-6.5 -33.5
q0 -23 7.5 -37.5t24 -20.5t28.5 -7t34 -1h115z" />
    <glyph glyph-name="uni0451" unicode="&#x451;" 
d="M530 223h-365q0 -15 4 -32.5t15.5 -41t39 -38.5t66.5 -15q30 0 56 17t34 45h143q0 -24 -15 -52.5t-42.5 -56.5t-76 -46.5t-107.5 -18.5q-115 0 -185.5 70t-70.5 218q0 118 63 197t189 79q135 0 193.5 -84t58.5 -241zM170 315h216q0 64 -33 92.5t-75 28.5t-75 -28.5
t-33 -92.5zM115 611v118h130v-118h-130zM311 611v118h130v-118h-130z" />
    <glyph glyph-name="uni0452" unicode="&#x452;" horiz-adv-x="611" 
d="M114 0v487h-94v112h94v119h138v-119h232v-112h-232v-131q57 51 128 51q48 0 81.5 -21t50.5 -50q38 -64 38 -203q0 -128 -35 -221q-32 -85 -126 -109q-33 -9 -70 -9v118q38 5 54.5 21t24.5 58.5t8 133.5q0 31 -0.5 47.5t-4.5 43.5t-12 41t-24.5 25t-39.5 11q-73 0 -73 -83
v-210h-138z" />
    <glyph glyph-name="uni0453" unicode="&#x453;" horiz-adv-x="444" 
d="M66 0v532h358v-112h-220v-420h-138zM139 611l93 144h155l-148 -144h-100z" />
    <glyph glyph-name="uni0454" unicode="&#x454;" 
d="M310 309v-92h-132q5 -51 32 -83t74 -32q44 0 69 30.5t25 62.5h144q0 -18 -6.5 -42.5t-24 -55t-43 -55t-68.5 -41.5t-96 -17q-121 0 -185.5 73t-64.5 209q0 134 67.5 208t182.5 74q40 0 77.5 -10t73 -31.5t59 -63.5t28.5 -99h-144q-9 44 -30 65t-64 21q-46 0 -74 -35
t-32 -86h132z" />
    <glyph glyph-name="uni0455" unicode="&#x455;" 
d="M505 371h-138q-2 15 -5 23.5t-11.5 22t-27.5 20.5t-48 7q-86 0 -86 -53q0 -22 31 -34.5t136 -37.5q81 -19 124 -51t43 -102q0 -37 -11.5 -67t-28.5 -48.5t-43 -32t-46.5 -20t-48.5 -10t-40.5 -4t-29.5 -0.5q-225 0 -242 186h144q0 -82 107 -82q95 0 95 54q0 26 -25.5 37
t-117.5 32q-14 3 -21 5q-74 17 -119 51t-45 101q0 30 9.5 58t32 57t69.5 47t113 18q216 0 230 -177z" />
    <glyph glyph-name="uni0456" unicode="&#x456;" horiz-adv-x="278" 
d="M70 0v532h138v-532h-138zM70 611v130h138v-130h-138z" />
    <glyph glyph-name="uni0457" unicode="&#x457;" horiz-adv-x="278" 
d="M70 0v532h138v-532h-138zM-24 611v118h130v-118h-130zM172 611v118h130v-118h-130z" />
    <glyph glyph-name="uni0458" unicode="&#x458;" horiz-adv-x="278" 
d="M70 -51v583h138v-588q0 -91 -36 -123.5t-109 -32.5q-28 0 -61 3v109h33q35 0 35 49zM70 611v130h138v-130h-138z" />
    <glyph glyph-name="uni0459" unicode="&#x459;" horiz-adv-x="914" 
d="M430 0v420h-154l-6 -195q-1 -30 -2 -49t-5 -47t-11 -46t-19.5 -38.5t-29.5 -32.5t-43 -20t-59 -8q-40 0 -67 10v116q21 -8 40 -8q28 0 42 22.5t15 84.5l8 323h429v-185h113q209 0 209 -174q0 -46 -17 -80.5t-39.5 -51.5t-53 -27t-49 -12t-35.5 -2h-266zM568 243v-139h89
q89 0 89 69q0 70 -101 70h-77z" />
    <glyph glyph-name="uni045A" unicode="&#x45a;" horiz-adv-x="882" 
d="M66 0v532h138v-185h203v185h138v-185h104q209 0 209 -174q0 -46 -17 -80.5t-39.5 -51.5t-53 -27t-49 -12t-35.5 -2h-257v243h-203v-243h-138zM545 243v-139h80q89 0 89 69q0 70 -101 70h-68z" />
    <glyph glyph-name="uni045B" unicode="&#x45b;" horiz-adv-x="611" 
d="M114 0v487h-94v112h94v119h138v-119h232v-112h-232v-131q51 51 131 51t119 -41t39 -104v-262h-138v228q0 75 -69 75q-41 0 -61.5 -26t-20.5 -65v-212h-138z" />
    <glyph glyph-name="uni045C" unicode="&#x45c;" horiz-adv-x="611" 
d="M70 0v532h138v-202l199 202h184l-220 -221l229 -311h-180l-153 211l-59 -57v-154h-138zM223 611l93 144h155l-148 -144h-100z" />
    <glyph glyph-name="uni045E" unicode="&#x45e;" 
d="M542 532l-183 -523q-14 -42 -21.5 -62.5t-19 -48.5t-19 -40t-20 -27.5t-24 -21t-29 -12t-36.5 -8t-46 -1.5q-21 0 -54 3v112q33 -3 41 -3q39 0 58.5 24.5t19.5 47.5l-195 560h155l114 -392h2l109 392h148zM385 755h56q0 -144 -163 -144t-163 144h56q13 -66 107 -66
t107 66z" />
    <glyph glyph-name="uni045F" unicode="&#x45f;" horiz-adv-x="611" 
d="M65 0v532h138v-420h204v420h138v-532h-171v-128h-138v128h-171z" />
    <glyph glyph-name="uni0462" unicode="&#x462;" horiz-adv-x="778" 
d="M240 0v527h-152v118h152v73h150v-73h194v-118h-194v-92h96q258 0 258 -218q0 -45 -11.5 -80.5t-27.5 -57.5t-41 -38.5t-45 -24t-46.5 -11.5t-38 -4.5t-26.5 -0.5h-268zM390 317v-193h80q124 0 124 96q0 32 -11 53t-32 29.5t-40 11.5t-47 3h-74z" />
    <glyph glyph-name="uni0463" unicode="&#x463;" horiz-adv-x="667" 
d="M294 243v-139h120q85 0 85 69q0 70 -85 70h-120zM156 0v428h-136v104h136v186h138v-186h179v-104h-179v-81h155q91 0 142.5 -43.5t51.5 -130.5q0 -46 -17 -80.5t-39.5 -51.5t-53 -27t-49 -12t-35.5 -2h-293z" />
    <glyph glyph-name="uni0472" unicode="&#x472;" horiz-adv-x="778" 
d="M44 359q0 168 89 272.5t256 104.5q157 0 251 -106.5t94 -270.5t-94 -270.5t-251 -106.5q-167 0 -256 104.5t-89 272.5zM584 300h-390q0 -70 54 -129t140 -59q87 0 141.5 59t54.5 129zM198 418h381q0 70 -53.5 129t-137.5 59q-83 0 -136.5 -59t-53.5 -129z" />
    <glyph glyph-name="uni0473" unicode="&#x473;" horiz-adv-x="612" 
d="M306 -16q-124 0 -198 78.5t-74 203.5t74 203.5t198 78.5q126 0 199 -78.5t73 -203.5t-73 -203.5t-199 -78.5zM434 223h-256q9 -55 42 -88t86 -33q56 0 88 31.5t40 89.5zM178 315h256q-7 52 -39.5 83.5t-88.5 31.5q-53 0 -86 -32.5t-42 -82.5z" />
    <glyph glyph-name="uni0474" unicode="&#x474;" horiz-adv-x="722" 
d="M273 0l-245 718h174l151 -526h2l106 395q22 82 52 115.5t98 33.5q41 0 83 -12v-112q-20 6 -37 6q-28 0 -41 -18t-26 -64l-165 -536h-152z" />
    <glyph glyph-name="uni0475" unicode="&#x475;" horiz-adv-x="610" 
d="M196 0l-182 532h155l114 -394h2l79 286q8 29 15 46t21 37.5t37 30.5t55 10q42 0 84 -10v-108q-18 6 -40 6q-17 0 -28.5 -10.5t-15.5 -21.5t-10 -32l-107 -372h-179z" />
    <glyph glyph-name="uni0490" unicode="&#x490;" horiz-adv-x="611" 
d="M82 0v718h395v126h118v-250h-363v-594h-150z" />
    <glyph glyph-name="uni0491" unicode="&#x491;" horiz-adv-x="444" 
d="M66 0v532h252v122h104v-234h-218v-420h-138z" />
    <glyph glyph-name="uni04D9" unicode="&#x4d9;" 
d="M26 309h365q0 15 -4 32.5t-14.5 41t-35.5 38.5t-61 15q-32 0 -60 -16.5t-40 -45.5h-143q6 32 21.5 60t43 55t75 43t109.5 16q115 0 181.5 -69.5t66.5 -218.5q0 -118 -63 -197t-189 -79q-135 0 -193.5 84t-58.5 241zM386 217h-216q0 -64 33 -92.5t75 -28.5t75 28.5
t33 92.5z" />
    <glyph glyph-name="uni2010" unicode="&#x2010;" horiz-adv-x="333" 
d="M306 345v-130h-279v130h279z" />
    <glyph glyph-name="endash" unicode="&#x2013;" 
d="M556 333v-106h-556v106h556z" />
    <glyph glyph-name="emdash" unicode="&#x2014;" horiz-adv-x="1000" 
d="M1000 333v-106h-1000v106h1000z" />
    <glyph glyph-name="quoteleft" unicode="&#x2018;" horiz-adv-x="278" 
d="M209 581v-127h-140v102q0 142 137 171v-51q-31 -10 -48 -26.5t-21 -31t-5 -37.5h77z" />
    <glyph glyph-name="quoteright" unicode="&#x2019;" horiz-adv-x="278" 
d="M69 591v127h140v-102q0 -142 -137 -171v51q31 10 48 26.5t21 31t5 37.5h-77z" />
    <glyph glyph-name="quotesinglbase" unicode="&#x201a;" horiz-adv-x="278" 
d="M69 0v127h140v-102q0 -142 -137 -171v51q31 10 48 26.5t21 31t5 37.5h-77z" />
    <glyph glyph-name="quotedblleft" unicode="&#x201c;" horiz-adv-x="500" 
d="M204 581v-127h-140v102q0 142 137 171v-51q-31 -10 -48 -26.5t-21 -31t-5 -37.5h77zM436 581v-127h-140v102q0 142 137 171v-51q-31 -10 -48 -26.5t-21 -31t-5 -37.5h77z" />
    <glyph glyph-name="quotedblright" unicode="&#x201d;" horiz-adv-x="500" 
d="M64 591v127h140v-102q0 -142 -137 -171v51q31 10 48 26.5t21 31t5 37.5h-77zM296 591v127h140v-102q0 -142 -137 -171v51q31 10 48 26.5t21 31t5 37.5h-77z" />
    <glyph glyph-name="quotedblbase" unicode="&#x201e;" horiz-adv-x="500" 
d="M64 0v127h140v-102q0 -142 -137 -171v51q31 10 48 26.5t21 31t5 37.5h-77zM296 0v127h140v-102q0 -142 -137 -171v51q31 10 48 26.5t21 31t5 37.5h-77z" />
    <glyph glyph-name="dagger" unicode="&#x2020;" 
d="M520 499v-112h-175v-558h-134v558h-175v112h175v219h134v-219h175z" />
    <glyph glyph-name="daggerdbl" unicode="&#x2021;" 
d="M520 509v-112h-176v-239h176v-112h-176v-217h-134v217h-174v112h174v239h-174v112h174v209h134v-209h176z" />
    <glyph glyph-name="bullet" unicode="&#x2022;" horiz-adv-x="350" 
d="M10 360q0 69 48 116.5t117 47.5t117 -47.5t48 -116.5q0 -70 -48 -118t-117 -48t-117 48t-48 118z" />
    <glyph glyph-name="ellipsis" unicode="&#x2026;" horiz-adv-x="1000" 
d="M242 146v-146h-150v146h150zM575 146v-146h-150v146h150zM908 146v-146h-150v146h150z" />
    <glyph glyph-name="perthousand" unicode="&#x2030;" horiz-adv-x="1000" 
d="M97 549q0 -26 18 -43.5t43 -17.5t43 17.5t18 43.5t-18 43.5t-43 17.5t-43 -17.5t-18 -43.5zM-3 549q0 66 47 113.5t114 47.5q66 0 113.5 -47.5t47.5 -113.5t-47 -113.5t-114 -47.5t-114 47t-47 114zM80 -19l398 729h74l-398 -729h-74zM316 149q0 66 47 113.5t114 47.5
q66 0 113.5 -47.5t47.5 -113.5t-47 -113.5t-114 -47.5t-114 47t-47 114zM416 149q0 -26 18 -43.5t43 -17.5t43 17.5t18 43.5t-18 43.5t-43 17.5t-43 -17.5t-18 -43.5zM681 149q0 66 47 113.5t114 47.5q66 0 113.5 -47.5t47.5 -113.5t-47 -113.5t-114 -47.5t-114 47t-47 114z
M781 149q0 -26 18 -43.5t43 -17.5t43 17.5t18 43.5t-18 43.5t-43 17.5t-43 -17.5t-18 -43.5z" />
    <glyph glyph-name="guilsinglleft" unicode="&#x2039;" horiz-adv-x="333" 
d="M250 484v-116l-100 -88l100 -88v-116l-167 144v120z" />
    <glyph glyph-name="guilsinglright" unicode="&#x203a;" horiz-adv-x="333" 
d="M183 280l-100 88v116l167 -144v-120l-167 -144v116z" />
    <glyph glyph-name="fraction" unicode="&#x2044;" horiz-adv-x="167" 
d="M336 710l-427 -729h-79l428 729h78z" />
    <glyph glyph-name="Euro" unicode="&#x20ac;" 
d="M563 621l-46 -112q-7 14 -31 38q-49 51 -123 51q-96 0 -119 -136h253l-40 -95h-221v-48h202l-40 -95h-152q7 -54 35 -92.5t82 -38.5q92 0 154 53v-128q-57 -37 -154 -37q-104 0 -172 60.5t-89 182.5h-90l40 95h41q0 5 -0.5 14t-0.5 13v21h-80l39 95h50q18 119 85 183.5
t177 64.5q69 0 123 -27.5t77 -61.5z" />
    <glyph glyph-name="uni2113" unicode="&#x2113;" horiz-adv-x="510" 
d="M441 175l51 -51q-71 -139 -206 -139q-84 0 -128 46.5t-51 119.5q0 8 -1 11l-51 -40l-32 66q77 64 82 69v255q0 127 50 190.5t127 63.5q69 0 104 -49.5t35 -127.5q0 -157 -196 -350v-42q1 -55 26 -84t64 -29q71 0 126 91zM225 514v-160q118 135 118 239q0 84 -55 84
q-26 0 -44.5 -38t-18.5 -125z" />
    <glyph glyph-name="uni2116" unicode="&#x2116;" horiz-adv-x="1000" 
d="M861 382q0 35 -14 61.5t-46 26.5q-60 0 -60 -88t60 -88t60 88zM801 182q-90 0 -140 54t-50 146q0 90 51 145t139 55q91 0 140.5 -54.5t49.5 -145.5q0 -93 -48.5 -146.5t-141.5 -53.5zM9 0v718h151l253 -478h2v478h138v-718h-147l-257 479h-2v-479h-138zM623 20v98h356
v-98h-356z" />
    <glyph glyph-name="trademark" unicode="&#x2122;" horiz-adv-x="1000" 
d="M616 718l94 -250l93 250h153v-412h-106v281h-2l-98 -281h-81l-98 281h-2v-281h-106v412h153zM385 718v-85h-115v-327h-112v327h-114v85h341z" />
    <glyph glyph-name="Omega" unicode="&#x2126;" horiz-adv-x="704" 
d="M173 101v3q-52 49 -86.5 122t-34.5 163q0 136 85 230t218 94q69 0 126.5 -28.5t93.5 -74.5t55.5 -101.5t19.5 -113.5q0 -91 -35.5 -167t-87.5 -124v-3h137v-101h-261v74q52 35 87 109.5t35 185.5q0 99 -45.5 169.5t-125.5 70.5q-79 0 -128 -69t-49 -176q0 -104 35.5 -181
t86.5 -109v-74h-261v101h135z" />
    <glyph glyph-name="estimated" unicode="&#x212e;" horiz-adv-x="879" 
d="M844 335h-656q-5 0 -5 -4v-198q0 -13 8 -23q105 -108 248 -108q77 0 144.5 32.5t116.5 88.5h59q-56 -65 -140.5 -103t-180.5 -38q-167 0 -285.5 106t-118.5 257t118.5 258t285.5 107q169 0 287.5 -106.5t118.5 -258.5v-10zM695 361v200q0 14 -10 23q-104 104 -246 104
t-246 -107q-10 -9 -10 -25v-195q0 -6 5 -6h503q4 0 4 6z" />
    <glyph glyph-name="partialdiff" unicode="&#x2202;" 
d="M111 561l-60 75q27 20 47 32t55 23t73 11q74 0 129 -31.5t85 -85t44 -115t14 -131.5q0 -41 -4 -79.5t-19.5 -91.5t-41 -91t-75 -65.5t-115.5 -27.5q-56 0 -100 21t-69 56t-37.5 73.5t-12.5 78.5q0 94 59.5 157t156.5 63q37 0 77.5 -13t59.5 -42q1 35 -5 70.5t-20 74
t-45 62.5t-75 24q-60 0 -121 -48zM248 74q43 0 73.5 32.5t43.5 78t11 94.5q-55 64 -120 64q-59 0 -88 -42t-29 -94q0 -66 33 -99.5t76 -33.5z" />
    <glyph glyph-name="Delta" unicode="&#x2206;" horiz-adv-x="600" 
d="M428 112l-131 385l-169 -385h300zM0 0l320 714l280 -714h-600z" />
    <glyph glyph-name="product" unicode="&#x220f;" horiz-adv-x="718" 
d="M692 590h-101v-687h-123v687h-219v-687h-123v687h-101v112h667v-112z" />
    <glyph glyph-name="summation" unicode="&#x2211;" horiz-adv-x="555" 
d="M536 -97h-513v80l242 320l-233 313v86h488v-105h-322v-3l206 -270l-228 -303v-3h360v-115z" />
    <glyph glyph-name="minus" unicode="&#x2212;" horiz-adv-x="584" 
d="M544 197h-504v112h504v-112z" />
    <glyph glyph-name="uni2215" unicode="&#x2215;" horiz-adv-x="167" 
d="M336 710l-427 -729h-79l428 729h78z" />
    <glyph glyph-name="uni2219" unicode="&#x2219;" horiz-adv-x="278" 
d="M58 253q0 34 23.5 57.5t57.5 23.5t57.5 -23.5t23.5 -57.5t-23 -57.5t-58 -23.5t-58 23.5t-23 57.5z" />
    <glyph glyph-name="radical" unicode="&#x221a;" 
d="M43 68l-42 85l149 64l129 -257l164 754h112l-208 -920h-101l-152 297z" />
    <glyph glyph-name="infinity" unicode="&#x221e;" horiz-adv-x="815" 
d="M408 322q46 56 90.5 88t103.5 32q66 0 117 -45.5t51 -133.5q0 -80 -46.5 -131t-122.5 -51q-54 0 -98.5 28.5t-94.5 83.5q-36 -38 -56 -56t-58 -36.5t-78 -18.5q-75 0 -123 49.5t-48 130.5q0 85 49.5 132t118.5 47q34 0 63.5 -10t55 -31.5t39.5 -36t37 -41.5zM465 259
q75 -82 137 -82q29 0 53.5 19.5t24.5 63.5q0 42 -24 64t-56 22q-55 0 -135 -87zM350 259q-34 34 -51 47q-47 39 -87 39q-31 0 -54 -23t-23 -62t22.5 -60.5t57.5 -21.5q63 0 135 81z" />
    <glyph glyph-name="integral" unicode="&#x222b;" horiz-adv-x="394" 
d="M371 856l-13 -85q-16 9 -35 9q-33 0 -50 -26q-28 -36 -28 -170q0 -79 7.5 -235.5t7.5 -248.5q0 -135 -37 -202q-38 -71 -127 -71q-48 0 -76 16l16 89q25 -11 43 -11q28 0 44 20q27 40 27 158q0 92 -7 252.5t-7 244.5q0 88 13.5 140t45.5 86q40 46 116 46q38 0 60 -12z
" />
    <glyph glyph-name="approxequal" unicode="&#x2248;" horiz-adv-x="600" 
d="M495 236l36 -97q-20 -27 -33 -42t-38 -29.5t-54 -14.5q-40 0 -103.5 33.5t-102.5 33.5q-63 0 -95 -72l-36 98q45 86 125 86q41 0 113.5 -33.5t99.5 -33.5q19 0 36 11.5t27 24t25 35.5zM495 456l36 -97q-20 -27 -33 -42t-38 -29.5t-54 -14.5q-40 0 -103.5 33.5
t-102.5 33.5q-63 0 -95 -72l-36 98q45 86 125 86q41 0 113.5 -33.5t99.5 -33.5q19 0 36 11.5t27 24t25 35.5z" />
    <glyph glyph-name="notequal" unicode="&#x2260;" horiz-adv-x="600" 
d="M47 87v112h165l66 108h-231v112h300l53 87h112l-53 -87h94v-112h-163l-66 -108h229v-112h-298l-54 -87h-112l54 87h-96z" />
    <glyph glyph-name="lessequal" unicode="&#x2264;" horiz-adv-x="600" 
d="M553 55v-112h-506v112h506zM553 215v-104l-506 182v84l506 186v-104l-350 -123v-2z" />
    <glyph glyph-name="greaterequal" unicode="&#x2265;" horiz-adv-x="600" 
d="M47 -57v112h506v-112h-506zM47 111v104l350 119v2l-350 123v104l506 -186v-84z" />
    <glyph glyph-name="lozenge" unicode="&#x25ca;" horiz-adv-x="590" 
d="M540 351l-198 -400h-99l-193 400l198 400h99zM430 348l-114 241q-14 37 -19 61h-3q-7 -27 -19 -61l-116 -236l116 -245q11 -32 17 -57h4q12 41 18 55z" />
    <glyph glyph-name="acute.cap" unicode="&#xf6c9;" horiz-adv-x="278" 
d="M56 780l93 144h155l-148 -144h-100z" />
    <glyph glyph-name="caron.cap" unicode="&#xf6ca;" horiz-adv-x="278" 
d="M76 780l-113 144h112l64 -82l64 82h112l-114 -144h-125z" />
    <glyph glyph-name="dieresis.cap" unicode="&#xf6cb;" horiz-adv-x="278" 
d="M-24 780v118h130v-118h-130zM172 780v118h130v-118h-130z" />
    <glyph glyph-name="grave.cap" unicode="&#xf6ce;" horiz-adv-x="278" 
d="M122 780l-148 144h154l94 -144h-100z" />
    <glyph glyph-name="hungarumlaut.cap" unicode="&#xf6cf;" horiz-adv-x="278" 
d="M-68 780l93 144h155l-148 -144h-100zM140 780l93 144h155l-148 -144h-100z" />
    <glyph glyph-name="macron.cap" unicode="&#xf6d0;" horiz-adv-x="278" 
d="M311 854v-74h-344v74h344z" />
    <glyph glyph-name="breve.cyrcap" unicode="&#xf6d1;" horiz-adv-x="278" 
d="M246 924h56q0 -144 -163 -144t-163 144h56q13 -66 107 -66t107 66z" />
    <glyph glyph-name="circumflex.cyrcap" unicode="&#xf6d2;" horiz-adv-x="278" 
d="M302 780h-56q-13 66 -107 66t-107 -66h-56q0 144 163 144t163 -144z" />
    <glyph glyph-name="space_uni030F" unicode="&#xf6d3;" horiz-adv-x="278" 
d="M253 755l93 -144h-100l-148 144h155zM45 755l93 -144h-100l-148 144h155z" />
    <glyph glyph-name="breve.cyr" unicode="&#xf6d4;" horiz-adv-x="278" 
d="M246 755h56q0 -144 -163 -144t-163 144h56q13 -66 107 -66t107 66z" />
    <glyph glyph-name="circumflex.cyr" unicode="&#xf6d5;" horiz-adv-x="278" 
d="M302 611h-56q-13 66 -107 66t-107 -66h-56q0 144 163 144t163 -144z" />
    <glyph glyph-name="space_uni030F.cap" unicode="&#xf6d6;" horiz-adv-x="278" 
d="M253 924l93 -144h-100l-148 144h155zM45 924l93 -144h-100l-148 144h155z" />
    <glyph glyph-name="fi" unicode="&#xfb01;" horiz-adv-x="611" 
d="M227 432v-432h-140v432h-77v100h77v43q0 152 156 152q48 0 72 -2v-113h-39q-34 0 -41.5 -11.5t-7.5 -47.5v-21h91v-100h-91zM402 532h140v-532h-140v532zM542 725v-130h-140v130h140z" />
    <glyph glyph-name="fl" unicode="&#xfb02;" horiz-adv-x="611" 
d="M227 432v-432h-140v432h-77v100h77v43q0 152 156 152q48 0 72 -2v-113h-39q-34 0 -41.5 -11.5t-7.5 -47.5v-21h91v-100h-91zM542 718v-718h-140v718h140z" />
    <glyph glyph-name="a.superior" horiz-adv-x="370" 
d="M326 644v-173q0 -43 21 -49v-13h-98q-6 17 -8 38q-48 -46 -112 -46q-44 0 -75.5 23.5t-31.5 69.5q0 45 28 71.5t74 32.5l82 11q32 5 32 23q0 34 -60 34q-49 0 -56 -41h-87q7 66 48 89t106 23q22 0 43 -3.5t43.5 -13t36.5 -29t14 -47.5zM238 525v40q-17 -11 -62 -17
q-29 -4 -44.5 -14.5t-15.5 -34.5q0 -19 12.5 -28t28.5 -9q32 0 56.5 17.5t24.5 45.5z" />
    <glyph glyph-name="o.superior" horiz-adv-x="365" 
d="M360 569q0 -66 -44.5 -117t-132.5 -51t-132.5 51t-44.5 117t44.5 117t132.5 51t132.5 -51t44.5 -117zM262 569q0 41 -21 68.5t-58 27.5t-58 -27.5t-21 -68.5t21 -68.5t58 -27.5t58 27.5t21 68.5z" />
    <glyph glyph-name="one.superior" horiz-adv-x="333" 
d="M26 574v62h13q59 0 85 22t28 52h85v-427h-101v291h-110z" />
    <glyph glyph-name="two.superior" horiz-adv-x="333" 
d="M102 558h-88q0 49 17 82t44 46.5t48 18.5t42 5q68 0 113 -36t45 -99q0 -86 -88 -139q-77 -47 -97 -71h186v-82h-315q1 23 4.5 39.5t13.5 39.5t31.5 45.5t53.5 44.5q50 34 69 48.5t33 34.5t14 43v3l1 2q0 17 -16 32.5t-44 15.5q-22 0 -37 -7.5t-20.5 -21t-7 -22
t-2.5 -22.5z" />
    <glyph glyph-name="three.superior" horiz-adv-x="333" 
d="M101 573h-85q0 62 39 99.5t114 37.5q56 0 99.5 -29t43.5 -90q0 -31 -16.5 -52t-38.5 -30v-2q12 -3 25.5 -11t28.5 -31.5t15 -56.5q0 -60 -43.5 -98.5t-113.5 -38.5q-23 0 -44.5 4t-51 16.5t-47.5 44t-18 77.5h89q0 -67 67 -67q64 0 64 62q0 20 -8.5 33t-25.5 18
t-30.5 6.5t-34.5 1.5v64h15q15 0 23.5 1t22 5.5t20.5 16t7 30.5q0 51 -54 51q-62 0 -62 -62z" />
    <glyph glyph-name="dieresis_acutecomb" horiz-adv-x="278" 
d="M50 611l81 144h125l-124 -144h-82zM257 611v112h112v-112h-112zM-91 611v112h112v-112h-112z" />
    <glyph glyph-name="dieresis_gravecomb" horiz-adv-x="278" 
d="M147 755l81 -144h-82l-124 144h125zM21 723v-112h-112v112h112zM369 723v-112h-112v112h112z" />
    <glyph glyph-name="dieresis_acutecomb.cap" horiz-adv-x="278" 
d="M50 780l81 144h125l-124 -144h-82zM257 780v112h112v-112h-112zM-91 780v112h112v-112h-112z" />
    <glyph glyph-name="dieresis_gravecomb.cap" horiz-adv-x="278" 
d="M147 924l81 -144h-82l-124 144h125zM21 892v-112h-112v112h112zM369 892v-112h-112v112h112z" />
    <glyph glyph-name="uni0431.ital" horiz-adv-x="611" 
d="M399 725h120q-4 -20 -10 -35.5t-12 -28t-18 -21.5l-21 -15.5t-27.5 -11l-30.5 -7.5t-38.5 -5t-42.5 -2.5t-50 -2.5q-22 -1 -33.5 -2t-27.5 -5t-23 -12t-7 -20q0 -11 5.5 -18t16 -10t19 -3.5t22.5 -0.5q98 -1 125.5 -3t59.5 -12q56 -18 91.5 -60.5t48 -88t12.5 -97.5
q0 -126 -74.5 -203t-197.5 -77q-57 0 -104.5 17t-77.5 45t-51 64.5t-30 73.5t-9 74q0 87 46 148q19 24 52 46q-68 23 -68 102q0 50 32 92t113 51q11 1 51.5 3.5t76 5t40.5 3.5q15 3 22 16zM179 266q0 -69 31 -116.5t97 -47.5q128 0 128 164t-128 164q-66 0 -97 -47.5
t-31 -116.5z" />
    </font>
</defs>
</svg>
